<svg id="Layer_1" data-name="Layer 1" xmlns="http://www.w3.org/2000/svg" viewBox="0 0 559.62 150.48"><defs><style>.cls-1{fill:#ab2c29;}</style></defs><title>freebsd</title><path class="cls-1" d="M623.69,245.93a20,20,0,0,1,13.24,13.36c1.9,6.71-.22,13.46-4.74,18.6,5.53,3,10.18,7.65,12,13.81a23.18,23.18,0,0,1-1.58,17.54,24.22,24.22,0,0,1-15.56,11.66c-3.5.75-7.2.49-10.76.49H594.56c-2.77,0-4.25-2-4.25-4.51V265.79C590.31,239.9,617.78,244.26,623.69,245.93Zm-26,21v9.65h22.8c8.88,0,10.32-12.44,9.07-16-1.3-3.76-4.86-6.31-8.48-7.46C618.13,252.34,597.74,247.49,597.74,266.88Zm0,16.65v30.35c0,.82,0,.7.82.7h17c4.73,0,9.63.15,14-2,5.52-2.74,8.76-10,8.18-16s-4.71-10.09-10.17-12.15c-2.73-1-6.54-.9-9.45-.9Z" transform="translate(-200.2 -207.61)"/><path class="cls-1" d="M702.2,249.84c0-3.33,2-5,6-5h20.59c20.49,0,31,19.76,31,38.79,0,19.45-12.69,38.17-33.07,38.17H706.57c-3.33,0-4.37-.62-4.37-4.26Zm7.7,2.6v61.78h16.33c16.54,0,25.38-15.18,25.38-30.58,0-15.81-8-31.2-23.92-31.2Z" transform="translate(-200.2 -207.61)"/><path class="cls-1" d="M671,252.56a12.92,12.92,0,0,0-12.88,12.68c0,6.49,8.72,10.24,17.34,14.91,9.13,5,18.86,9.94,18.86,20.49,0,14.51-10.85,22-24.85,22A31.63,31.63,0,0,1,652,317.58a5.34,5.34,0,0,1-2.74-4.46c0-2.33,1.12-3.45,3.45-3.45a6.51,6.51,0,0,1,3.55,1.22,26.93,26.93,0,0,0,13.49,3.85c8.83,0,16.33-3.85,16.33-13.59,0-6.08-7.3-9.94-15.21-14.1-9.94-5.17-21.1-10.85-21.1-21.4,0-13.29,10.14-21,22.82-21a36.48,36.48,0,0,1,17.24,4.66,5.42,5.42,0,0,1,2.84,4.67,3.75,3.75,0,0,1-3.55,4c-1.22,0-2.43-.91-3.85-1.83C682.07,254.08,676.28,252.56,671,252.56Z" transform="translate(-200.2 -207.61)"/><path class="cls-1" d="M435.14,318.18a3.43,3.43,0,0,1-3.57,3.41,3.36,3.36,0,0,1-3.49-3.49V284.28c0-9.52,6.6-17.05,19.13-17.05A40.39,40.39,0,0,1,462.85,270a4.1,4.1,0,0,1,2.64,3.39c0,2.17-1.6,2.92-3.2,2.92-2.92,0-6.88-2.26-13-2.26-8.86,0-14.14,4.33-14.14,10.84Z" transform="translate(-200.2 -207.61)"/><path class="cls-1" d="M392.63,283.61v34.66a3.32,3.32,0,0,1-3.53,3.32,3.36,3.36,0,0,1-3.49-3.49V267.36c.41-16.06,11.19-24.09,22.54-24.09h13.61c3,0,4.63,1.26,4.63,3.68s-1.58,3.47-4.63,3.47l-13.32,0c-8.53,0-15.7,5.31-15.7,17.06l-.06,5s0-1.63,0,4.08h23.4a3.53,3.53,0,0,1,0,7.05Z" transform="translate(-200.2 -207.61)"/><path class="cls-1" d="M580.29,290.74A27.71,27.71,0,0,0,570.15,273a25.94,25.94,0,0,0-16.71-5.76c-12.57,0-24.4,10-26.37,22.37-2.06,12.91,5.49,25.82,17.58,30,5.32,1.85,11.3,1.83,17.79-.07,2-.6,4.34-1.37,5.64-3a3.77,3.77,0,0,0,0-4.5,4.28,4.28,0,0,0-3.22-1.24,2.82,2.82,0,0,0-1.27.42l-.46.22c-1,.43-1.86.79-2.73,1.1a20.11,20.11,0,0,1-10.79.79,18.82,18.82,0,0,1-9.83-5.26,19.91,19.91,0,0,1-5-8.43l-.13-.44h41.77a3.66,3.66,0,0,0,2.93-1.13C580.82,296.42,580.62,293.29,580.29,290.74Zm-7.2,1.37h-39l0-.39a20.6,20.6,0,0,1,8-13.47,18.17,18.17,0,0,1,11.48-3.58,19.08,19.08,0,0,1,12.52,4.52c3.43,2.75,6.89,8,6.89,12.58Z" transform="translate(-200.2 -207.61)"/><path class="cls-1" d="M519.05,290.74A27.71,27.71,0,0,0,508.91,273a25.94,25.94,0,0,0-16.71-5.76c-12.57,0-24.41,10-26.37,22.37-2.06,12.91,5.49,25.82,17.58,30,5.32,1.85,11.3,1.83,17.8-.07,2-.6,4.34-1.37,5.64-3a3.77,3.77,0,0,0,0-4.5,4.28,4.28,0,0,0-3.22-1.24,2.82,2.82,0,0,0-1.27.42l-.46.22c-1,.43-1.86.79-2.74,1.1a20.11,20.11,0,0,1-10.79.79,18.83,18.83,0,0,1-9.84-5.26,19.9,19.9,0,0,1-5-8.43l-.13-.44h41.77a3.65,3.65,0,0,0,2.93-1.13C519.58,296.42,519.38,293.29,519.05,290.74Zm-7.2,1.37h-39l.05-.39a20.6,20.6,0,0,1,8-13.47,18.17,18.17,0,0,1,11.48-3.58A19.09,19.09,0,0,1,505,279.19c3.43,2.75,6.89,8,6.89,12.58Z" transform="translate(-200.2 -207.61)"/><path class="cls-1" d="M366.15,217.41a4.24,4.24,0,0,1-.32,1.68,3.91,3.91,0,0,1-2.17,2.13,4,4,0,0,1-1.53.3,4.16,4.16,0,0,1-1.63-.31,3.82,3.82,0,0,1-1.28-.86,4,4,0,0,1-.84-1.3,4.34,4.34,0,0,1-.3-1.63,4.24,4.24,0,0,1,.32-1.68,3.9,3.9,0,0,1,2.17-2.13,4.12,4.12,0,0,1,1.55-.3,4,4,0,0,1,1.53.3,3.91,3.91,0,0,1,2.17,2.13A4.24,4.24,0,0,1,366.15,217.41Zm-.88,0A3.79,3.79,0,0,0,365,216a3.22,3.22,0,0,0-.67-1.08,3,3,0,0,0-1-.7,3.07,3.07,0,0,0-1.23-.25,3.13,3.13,0,0,0-1.25.25,3,3,0,0,0-1,.7,3.23,3.23,0,0,0-.67,1.08,3.79,3.79,0,0,0-.24,1.38,3.9,3.9,0,0,0,.22,1.32,3.22,3.22,0,0,0,.63,1.08,3,3,0,0,0,1,.73,3.11,3.11,0,0,0,1.32.27,3.07,3.07,0,0,0,1.23-.25,3,3,0,0,0,1-.7,3.24,3.24,0,0,0,.67-1.07A3.78,3.78,0,0,0,365.27,217.41Zm-4,2.35h-.75v-4.55h1.73a2.08,2.08,0,0,1,1.24.31,1.16,1.16,0,0,1,.42,1,1.11,1.11,0,0,1-.34.9,1.54,1.54,0,0,1-.85.34l1.28,2h-.85L362,217.82h-.7Zm.84-2.58.4,0a.86.86,0,0,0,.34-.09.62.62,0,0,0,.23-.21.73.73,0,0,0,.09-.39.53.53,0,0,0-.09-.33.63.63,0,0,0-.24-.19,1,1,0,0,0-.32-.08l-.34,0h-.9v1.33Z" transform="translate(-200.2 -207.61)"/><path class="cls-1" d="M759.68,249a4.24,4.24,0,0,1-.32,1.68,3.91,3.91,0,0,1-2.17,2.13,4,4,0,0,1-1.53.3,4.16,4.16,0,0,1-1.63-.31,3.82,3.82,0,0,1-1.28-.86,4,4,0,0,1-.84-1.3,4.34,4.34,0,0,1-.3-1.63,4.24,4.24,0,0,1,.32-1.68,3.9,3.9,0,0,1,2.17-2.13,4.12,4.12,0,0,1,1.55-.3,4,4,0,0,1,1.53.3,3.91,3.91,0,0,1,2.17,2.13A4.24,4.24,0,0,1,759.68,249Zm-.88,0a3.79,3.79,0,0,0-.24-1.37,3.22,3.22,0,0,0-.67-1.08,3,3,0,0,0-1-.7,3.07,3.07,0,0,0-1.23-.25,3.13,3.13,0,0,0-1.25.25,3,3,0,0,0-1,.7,3.23,3.23,0,0,0-.67,1.08,3.79,3.79,0,0,0-.24,1.38,3.9,3.9,0,0,0,.22,1.32,3.22,3.22,0,0,0,.63,1.08,3,3,0,0,0,1,.73,3.11,3.11,0,0,0,1.32.27,3.07,3.07,0,0,0,1.23-.25,3,3,0,0,0,1-.7,3.24,3.24,0,0,0,.67-1.07A3.78,3.78,0,0,0,758.8,249Zm-4,2.35h-.75v-4.55h1.73a2.08,2.08,0,0,1,1.24.31,1.16,1.16,0,0,1,.42,1,1.11,1.11,0,0,1-.34.9,1.54,1.54,0,0,1-.85.34l1.28,2h-.85l-1.18-1.95h-.7Zm.84-2.58.4,0a.86.86,0,0,0,.34-.09.62.62,0,0,0,.23-.21.73.73,0,0,0,.09-.39.53.53,0,0,0-.09-.33.63.63,0,0,0-.24-.19,1,1,0,0,0-.32-.08l-.34,0h-.9v1.33Z" transform="translate(-200.2 -207.61)"/><path class="cls-1" d="M351.29,210.18c8.1,8.1-14.36,43.69-18.15,47.49s-13.44.3-21.54-7.8S300,232.13,303.8,228.34,343.19,202.08,351.29,210.18Z" transform="translate(-200.2 -207.61)"/><path class="cls-1" d="M237.68,218.75c-12.37-7-30-14.82-35.57-9.23s2.42,23.67,9.51,36.06A76.06,76.06,0,0,1,237.68,218.75Z" transform="translate(-200.2 -207.61)"/><path class="cls-1" d="M338.93,254.88c1.14,3.86.93,7.06-.91,8.9-4.32,4.32-16-.28-26.47-10.28-.73-.66-1.46-1.34-2.18-2.06a47,47,0,0,1-8.64-11.57c-3.68-6.6-4.6-12.43-1.82-15.21,1.52-1.52,3.94-1.93,6.9-1.4,1.93-1.22,4.21-2.58,6.7-4a73.57,73.57,0,1,0,30.14,29.17C341.35,250.84,340.09,253,338.93,254.88Z" transform="translate(-200.2 -207.61)"/></svg>