<?xml version="1.0" encoding="UTF-8" standalone="no"?>
<!-- Created with Inkscape (http://www.inkscape.org/) -->

<svg
   xmlns:dc="http://purl.org/dc/elements/1.1/"
   xmlns:cc="http://creativecommons.org/ns#"
   xmlns:rdf="http://www.w3.org/1999/02/22-rdf-syntax-ns#"
   xmlns:svg="http://www.w3.org/2000/svg"
   xmlns="http://www.w3.org/2000/svg"
   xmlns:xlink="http://www.w3.org/1999/xlink"
   xmlns:sodipodi="http://sodipodi.sourceforge.net/DTD/sodipodi-0.dtd"
   xmlns:inkscape="http://www.inkscape.org/namespaces/inkscape"
   version="1.1"
   width="726.8316"
   height="800.8985"
   id="svg3039"
   style="enable-background:new"
   inkscape:version="0.48.4 r"
   sodipodi:docname="Export.svg">
  <sodipodi:namedview
     pagecolor="#ffffff"
     bordercolor="#666666"
     borderopacity="1"
     objecttolerance="10"
     gridtolerance="10"
     guidetolerance="10"
     inkscape:pageopacity="0"
     inkscape:pageshadow="2"
     inkscape:window-width="1600"
     inkscape:window-height="841"
     id="namedview60"
     showgrid="false"
     fit-margin-top="0"
     fit-margin-left="0"
     fit-margin-right="0"
     fit-margin-bottom="0"
     inkscape:zoom="0.69532167"
     inkscape:cx="161.13236"
     inkscape:cy="291.67978"
     inkscape:window-x="-8"
     inkscape:window-y="-8"
     inkscape:window-maximized="1"
     inkscape:current-layer="svg3039" />
  <metadata
     id="metadata3045">
    <rdf:RDF>
      <cc:Work
         rdf:about="">
        <dc:format>image/svg+xml</dc:format>
        <dc:type
           rdf:resource="http://purl.org/dc/dcmitype/StillImage" />
        <dc:title />
      </cc:Work>
    </rdf:RDF>
  </metadata>
  <defs
     id="defs3043">
    <linearGradient
       id="linearGradient3873">
      <stop
         id="stop3875"
         style="stop-color:#ff9f00;stop-opacity:1"
         offset="0" />
      <stop
         id="stop3877"
         style="stop-color:#fccd6d;stop-opacity:1"
         offset="1" />
    </linearGradient>
    <linearGradient
       id="linearGradient3865">
      <stop
         id="stop3867"
         style="stop-color:#ff9f00;stop-opacity:1"
         offset="0" />
      <stop
         id="stop3869"
         style="stop-color:#000000;stop-opacity:0"
         offset="1" />
    </linearGradient>
    <linearGradient
       x1="717.9848"
       y1="335.1749"
       x2="717.35455"
       y2="325.45221"
       id="linearGradient3879"
       xlink:href="#linearGradient3873"
       gradientUnits="userSpaceOnUse"
       gradientTransform="translate(75.039971,112.375)" />
    <linearGradient
       inkscape:collect="always"
       xlink:href="#linearGradient3873"
       id="linearGradient3037"
       x1="716.71204"
       y1="334.14386"
       x2="716.26514"
       y2="326.0444"
       gradientUnits="userSpaceOnUse" />
  </defs>
  <g
     id="layer6"
     style="display:inline"
     transform="translate(-75.039971,-112.375)">
    <path
       d="m 193.17774,334.05819 c -9.19582,-5.94624 -21.74894,-12.00004 -27.99603,-18.43221 -13.96387,-14.37758 -29.03293,-25.13658 -35.75982,-42.66979 -1.52491,-3.97457 -4.31259,-6.47206 -6.62048,-6.66658 -8.92386,-0.75214 -20.38629,14.54636 -25.703177,21.76303 -7.885895,10.70361 -12.813306,23.13366 -9.032378,35.3646 1.106764,3.58028 3.050516,7.01832 6.60624,8.70181 8.610455,4.0767 18.124865,1.54091 27.469065,3.20709 8.5211,1.51939 16.82972,4.0614 23.64069,7.17245 4.23965,1.93654 6.0974,4.51792 8.24755,11.49349 5.02515,-1.77442 10.59627,-2.7819 15.99075,-3.05042 7.46998,-0.37182 11.60593,2.49798 19.16369,8.0221 -0.15578,-10.56608 2.92615,-18.62065 3.9939,-24.90557 z m 25.85895,-19.48393 c -8.97542,-19.72624 -9.26853,-60.7316 -10.05891,-84.07425 -1.43758,-42.45676 -8.32642,-55.89331 -32.03327,-59.57887 -13.48067,-2.09575 -24.51139,0.0875 -39.19818,7.7584 -16.33154,8.52992 -25.04839,24.16471 -25.38448,41.57091 -0.29854,15.46158 22.42865,50.34093 35.86137,67.74955 8.59708,11.1417 35.95054,35.86535 49.06826,40.77738 0.98447,-5.85585 16.51205,-16.53376 21.74521,-14.20312 z m 50.06656,-3.76075 c -2.39593,-17.76063 2.06507,-32.59965 4.17318,-51.00541 2.49425,-21.77713 2.91134,-32.92288 1.57785,-36.41122 -5.95357,-15.57411 -19.48581,-18.10999 -29.68289,-17.63101 -16.59501,0.7795 -22.70446,5.50284 -26.69515,16.1689 -1.83527,4.9052 -2.93867,7.86021 -2.42738,23.00501 0.64211,19.01971 3.91026,54.01934 10.73077,68.81022 7.84338,0.54891 14.9717,1.66046 21.33287,6.13433 5.32283,-6.44724 14.62085,-7.82831 20.99075,-9.07082 z M 440.625,776.82965 c 34.99924,-17.04146 56.38579,-35.33043 79.35481,-67.44973 19.65579,-27.48617 31.88292,-55.15455 36.16644,-85.37991 2.00297,-14.13339 1.55171,-61.08829 -0.63583,-78.29112 -3.24519,-25.52014 -9.01162,-46.56806 -18.22035,-71.50852 -4.30742,-11.66601 -13.90587,-40.76193 -11.6136,-42.70065 2.29227,-1.93871 20.79717,44.36637 25.75463,60.62528 8.8078,-12.64283 22.08957,-24.69508 37.63573,-34.47862 26.61443,-16.74905 64.97047,-28.07072 89.93317,-27.29635 37.84154,1.1739 71.53314,12.33224 88.44923,26.64997 -3.51774,-23.15945 -21.07954,-49.13301 -28.84406,-57.33876 1.27669,-3.84256 3.63418,-30.2171 3.08432,-47.8438 -19.02303,6.53981 -43.13846,10.14083 -64.62993,11.68875 0.81432,10.20082 1.65497,15.94209 1.50133,24.11939 -0.15868,8.44575 -0.70056,18.75242 -7.42899,22.56121 -4.51969,2.5585 -10.76039,4.55212 -24.97011,-0.53253 -11.87728,-4.25004 -18.20789,-10.57851 -24.21589,-21.28259 -5.16889,-9.2091 -5.81107,-15.89551 -5.55562,-28.37166 -7.44211,11.7449 -17.05307,17.18255 -29.34772,17.23743 -9.89349,0.0442 -20.61203,-3.34152 -26.14982,-8.03564 -17.73797,-15.03559 -22.60705,-34.4647 -23.48675,-55.34206 -0.81848,-19.42462 4.3213,-44.75975 12.05764,-60.44539 6.4524,-13.08241 14.89606,-19.77261 28.61723,-19.81632 6.20842,-0.0198 13.88039,2.12256 19.89441,4.91629 8.20251,3.81034 19.32666,14.88959 23.53285,24.45598 9.12097,20.74433 6.86052,35.52955 6.69741,54.20869 4.36467,-3.6476 9.95875,-4.38615 14.88973,-4.66844 -4.01749,-6.23008 -3.99704,-23.25268 -4.06602,-32.76055 -0.10567,-14.56449 2.58818,-29.50932 9.06881,-41.65324 3.78261,-7.08816 11.38743,-13.5764 21.16093,-13.58699 18.04126,-0.0195 24.0285,13.58349 31.65656,35.84118 7.14383,20.84476 10.44088,43.93227 6.58446,57.14906 2.20173,-0.53991 24.29904,-1.32114 28.14046,-1.00544 -4.8117,-22.63229 -10.66404,-42.31318 -22.89373,-62.25093 -12.49496,-20.37019 -26.44041,-35.89138 -49.42956,-48.97409 -34.33245,-19.538 -55.32832,-20.9854 -88.56725,-19.27175 -3.81414,0.19664 -5.76664,0.43159 -8.5225,-2.07806 -2.75586,-2.50963 -4.71025,-9.47996 -4.72184,-13.93939 -0.0104,-4.00497 -3.88283,-16.36499 -7.75468,-23.81067 -7.00275,-13.46648 -18.71345,-22.33691 -23.95297,-21.98661 -6.23576,0.41693 -7.83647,15.72397 -7.54753,18.99371 1.44996,16.4082 8.75532,29.6814 15.78809,38.56863 -5.28246,-0.4065 -21.28474,-7.36444 -26.72775,-10.11566 -12.23364,-6.18365 -18.01294,-10.3043 -23.70378,-10.37323 -9.74981,-0.11808 -11.32239,3.65866 -6.71567,12.24348 9.27534,14.58451 29.01241,22.07632 44.55586,28.45787 -17.13031,4.83318 -26.0971,13.55292 -33.64145,21.13467 -21.06283,21.16726 -36.4468,41.30698 -48.16815,65.46445 -8.67927,17.88778 -19.04278,38.24496 -22.90272,49.53768 -0.78271,-3.88258 -1.43563,-10.41847 -1.21178,-17.44744 -9.63416,0.13877 -48.07161,4.59865 -50.63009,7.99079 24.33143,9.79023 60.5143,42.97083 70.97999,63.10192 -29.32485,-25.61187 -67.87851,-49.73561 -97.36818,-63.26508 -13.97813,-6.41298 -63.89289,-15.88449 -86.26527,-5.95637 5.63755,5.17101 17.48897,16.93032 18.63891,20.24039 -13.88001,-7.58943 -22.47262,-15.18186 -36.73375,-19.77961 -8.18442,-2.63863 -19.13074,-2.53201 -24.65324,-0.11428 -10.32702,4.5211 -17.92205,19.89827 -17.49142,35.0445 0.14443,5.08001 4.86918,14.07668 7.39642,21.59409 -6.99121,-7.13355 -20.77796,-20.95542 -33.89642,-20.91574 -11.7034,0.0354 -17.05187,3.63208 -25.2955,16.41076 -7.74886,12.01171 -11.68704,20.20005 -16.6477,34.6464 -9.10638,26.51947 -10.53846,55.1884 -5.48753,109.855 4.56256,43.51618 16.45752,81.74997 35.81591,121 8.30082,16.83031 21.73884,37.51159 34.8586,54 11.36545,14.28368 41.85825,45.37451 54.44864,54.24866 41.97448,29.58508 87.28264,44.80285 124.80758,46.09749 26.18002,0.90323 52.01198,-9.92748 68.625,-18.0165 z"
       id="path4068"
       style="fill:#6c6c6c;fill-opacity:1;stroke:#6c6c6c;stroke-width:1;stroke-linecap:round;stroke-linejoin:round;stroke-miterlimit:4;stroke-opacity:1;display:inline;enable-background:new"
       inkscape:connector-curvature="0" />
  </g>
  <g
     id="layer14"
     style="display:inline"
     transform="translate(-75.039971,-112.375)">
    <g
       id="g3185"
       style="fill:#505050;fill-opacity:1;stroke:#505050;stroke-opacity:1">
      <path
         d="m 525.67647,431.49972 c 2.29227,-1.93871 20.79717,44.36637 25.75463,60.62528 1.78538,-2.56276 3.7546,-5.10126 5.88924,-7.60151 -12.86045,-22.78009 -30.65998,-56.46465 -31.64387,-53.02377 z"
         id="path3057"
         style="fill:#505050;fill-opacity:1;stroke:#505050;stroke-width:1;stroke-linecap:round;stroke-linejoin:round;stroke-miterlimit:4;stroke-opacity:1;display:inline;enable-background:new"
         inkscape:connector-curvature="0" />
      <path
         d="m 738.60517,399.66124 c 0.81189,-2.4436 2.06086,-13.99931 2.72126,-26.62273 -4.91736,8.88823 -11.10104,20.14214 -10.3064,21.03894 0.79464,0.8968 2.95143,2.26342 7.58514,5.58379 z"
         id="path3071"
         style="fill:#505050;fill-opacity:1;stroke:#505050;stroke-width:1;stroke-linecap:round;stroke-linejoin:round;stroke-miterlimit:4;stroke-opacity:1;display:inline;enable-background:new"
         inkscape:connector-curvature="0" />
      <path
         d="m 523.47542,151.30439 c 2.7127,12.68712 8.7316,23.07185 14.56307,30.44102 2.58842,0.10702 -0.0294,-4.8123 -4.12811,-11.11778 -3.82014,-5.87694 -7.35989,-12.3808 -10.43496,-19.32324 z"
         id="path3078"
         style="fill:#505050;fill-opacity:1;stroke:#505050;stroke-width:1;stroke-linecap:round;stroke-linejoin:round;stroke-miterlimit:4;stroke-opacity:1;display:inline;enable-background:new"
         inkscape:connector-curvature="0" />
      <path
         d="m 479.10242,170.00922 c 0.43511,1.06475 1.03231,2.22808 1.78887,3.49078 8.8834,14.82649 29.01241,22.07632 44.55586,28.45787 2.18257,-1.64195 6.74367,-3.91113 3.65624,-4.58615 -16.42313,-3.59065 -40.87282,-15.47218 -50.00097,-27.3625 z"
         id="path3065"
         style="fill:#505050;fill-opacity:1;stroke:#505050;stroke-width:1;stroke-linecap:round;stroke-linejoin:round;stroke-miterlimit:4;stroke-opacity:1;display:inline;enable-background:new"
         inkscape:connector-curvature="0" />
      <path
         d="m 380.65225,325.15595 c -6.24876,1.14923 -10.9226,2.37275 -11.75929,3.48207 14.06861,5.66078 32.09944,19.14152 46.83015,33.39808 -10.41195,-12.84124 -18.51538,-26.67185 -35.07086,-36.88015 z"
         id="path3053"
         style="fill:#505050;fill-opacity:1;stroke:#505050;stroke-width:1;stroke-linecap:round;stroke-linejoin:round;stroke-miterlimit:4;stroke-opacity:1;display:inline;enable-background:new"
         inkscape:connector-curvature="0" />
      <path
         d="m 169.08086,660.59811 c 7.1215,11.62857 15.4545,23.58586 23.66292,33.90189 11.36546,14.28367 41.85825,45.37451 54.44864,54.24866 41.97448,29.58508 87.28264,44.80285 124.80758,46.09749 26.18002,0.90323 52.01199,-9.92747 68.625,-18.0165 21.39193,-10.41593 37.69844,-21.29791 52.38913,-35.51903 C 453.92776,776.67193 388.27725,783.87453 334.6604,770.85624 278.87428,757.31125 219.15761,721.61746 169.08086,660.59811 z"
         id="path3084"
         style="fill:#505050;fill-opacity:1;stroke:#505050;stroke-width:1;stroke-linecap:round;stroke-linejoin:round;stroke-miterlimit:4;stroke-opacity:1;display:inline;enable-background:new"
         inkscape:connector-curvature="0" />
      <path
         d="m 218.39865,275.38691 c 1.75055,14.88512 4.48674,29.91809 8.38098,38.36309 7.84338,0.54891 14.9717,1.66046 21.33287,6.13433 5.32283,-6.44724 14.62085,-7.82831 20.99075,-9.07082 -0.2429,-1.80057 -0.41532,-3.57112 -0.52687,-5.31839 -5.50868,1.4355 -12.65677,4.14398 -20.19554,4.37939 -7.58782,0.23694 -20.36626,-4.10889 -22.16773,-5.78177 -1.80147,-1.67288 -5.35159,-19.88524 -7.81446,-28.70583 z"
         id="path3049"
         style="fill:#505050;fill-opacity:1;stroke:#505050;stroke-width:1;stroke-linecap:round;stroke-linejoin:round;stroke-miterlimit:4;stroke-opacity:1;display:inline;enable-background:new"
         inkscape:connector-curvature="0" />
      <path
         d="m 190.24046,325.16023 c 2.61316,1.60314 5.00522,2.85108 7.05102,3.61715 0.98447,-5.85585 16.51205,-16.53376 21.74521,-14.20312 -0.99603,-2.18908 -1.88513,-4.6402 -2.67986,-7.30016 -10.63407,3.7943 -20.23982,10.76587 -26.11637,17.88613 z"
         id="path3047"
         style="fill:#505050;fill-opacity:1;stroke:#505050;stroke-width:1;stroke-linecap:round;stroke-linejoin:round;stroke-miterlimit:4;stroke-opacity:1;display:inline;enable-background:new"
         inkscape:connector-curvature="0" />
      <path
         d="m 145.78185,342.49859 c 4.23965,1.93654 6.0974,4.51792 8.24755,11.49349 5.02515,-1.77442 10.59627,-2.7819 15.99075,-3.05042 7.46998,-0.37182 11.60593,2.49798 19.16369,8.0221 -0.15578,-10.56608 2.92615,-18.62065 3.9939,-24.90557 -9.19582,-5.94624 -21.74894,-12.00004 -27.99603,-18.43221 -6.01602,-6.19426 -12.23718,-11.71687 -17.908,-17.3989 3.93115,7.10077 23.70423,28.86194 38.60227,35.29861 -3.67708,5.40435 -8.53766,9.27633 -10.08838,10.03601 -1.55071,0.75967 -15.86174,2.38377 -21.11902,4.12452 -4.03561,-4.24709 -7.45608,-5.58972 -8.88673,-5.18763 z"
         id="path3041"
         style="fill:#505050;fill-opacity:1;stroke:#505050;stroke-width:1;stroke-linecap:round;stroke-linejoin:round;stroke-miterlimit:4;stroke-opacity:1;display:inline;enable-background:new"
         inkscape:connector-curvature="0" />
      <path
         d="m 669.0991,411.21743 c -4.40597,1.94944 -10.7319,2.80429 -22.93731,-1.56317 -10.69375,-3.82654 -16.89116,-9.33793 -22.40508,-18.21078 8.82476,29.72515 46.45321,41.30588 45.34239,19.77395 z"
         id="path3164"
         style="fill:#505050;fill-opacity:1;stroke:#505050;stroke-width:1.01897204;stroke-linecap:round;stroke-linejoin:round;stroke-miterlimit:4;stroke-opacity:1;display:inline;enable-background:new"
         inkscape:connector-curvature="0" />
    </g>
  </g>
  <g
     id="layer7"
     style="display:inline"
     transform="translate(-75.039971,-112.375)">
    <g
       id="g4193">
      <path
         d="m 406.41291,365.74155 c -40.36163,1.13258 -73.26514,15.51609 -97.41291,28.39639 -33.65651,17.95222 -48.85439,26.01093 -65.5,40.23663 -34.65844,29.61986 -65.52294,66.40111 -82.78365,98.65334 -9.79647,18.30506 -21.7936,52.49993 -21.80601,62.66641 -8.53184,-24.36521 -14.20358,-49.25756 -16.84107,-76.19432 -1.35034,-13.79111 -2.24957,-25.92953 -2.69452,-36.79998 32.22574,-40.81345 70.70038,-77.15365 113.79125,-103.80442 38.54636,-23.84009 83.80351,-38.69781 116.05663,-47.24173 17.67231,8.66461 37.89879,20.60325 57.19028,34.08768 z"
         id="path4071"
         style="fill:#363638;fill-opacity:1;stroke:#363638;stroke-width:1.01897204;stroke-linecap:round;stroke-linejoin:round;stroke-miterlimit:4;stroke-opacity:1;display:inline;enable-background:new"
         inkscape:connector-curvature="0" />
      <path
         d="m 169.5,358.58784 c -11.7034,0.0354 -17.05187,3.63208 -25.2955,16.41076 -7.74886,12.01171 -11.68704,20.20005 -16.6477,34.6464 -0.9864,2.87258 -1.88626,5.77071 -2.70012,8.72466 3.17883,-5.87221 26.08216,-26.85186 34.02457,-30.60447 9.0934,-4.29642 22.53131,-7.70553 34.01334,-8.56334 6.81123,-0.50885 9.35073,-0.0919 10.50349,0.30143 -6.99287,-7.13325 -20.77962,-20.95512 -33.89808,-20.91544 z"
         id="path4078"
         style="fill:#363638;fill-opacity:1;stroke:#363638;stroke-width:1.01897204;stroke-linecap:round;stroke-linejoin:round;stroke-miterlimit:4;stroke-opacity:1;display:inline;enable-background:new"
         inkscape:connector-curvature="0" />
      <path
         d="m 246.85758,253.73108 c 9.31813,0.0599 19.89637,0.93808 26.79992,2.69796 1.32769,-12.06916 1.95352,-20.56309 1.94107,-26.07532 -6.86094,-4.1266 -20.12861,-4.599 -28.62553,-4.67788 -10.81724,-0.10043 -22.18388,-0.75151 -30.76978,5.47742 -0.29735,3.11544 -0.37169,7.35014 -0.1544,13.78651 0.14364,4.25459 0.41868,9.3088 0.83472,14.75766 9.38884,-3.47111 21.28456,-6.02224 29.974,-5.96635 z"
         id="path4186"
         style="fill:#363638;fill-opacity:1;stroke:#363638;stroke-width:1.01897204;stroke-linecap:round;stroke-linejoin:round;stroke-miterlimit:4;stroke-opacity:1;display:inline;enable-background:new"
         inkscape:connector-curvature="0" />
      <path
         d="m 126.84543,256.31774 c 5.42148,-5.56273 22.49399,-20.29758 35.46372,-26.41189 18.03352,-8.50153 28.09133,-8.45379 46.25469,-8.37024 0.17099,2.83233 0.30743,5.81871 0.41394,8.96439 0.21681,6.40321 0.39621,14.1355 0.72613,22.39018 -9.45109,0.21718 -27.60383,7.87941 -31.75013,10.25845 -8.46821,4.85884 -24.47961,16.58419 -29.73034,24.8505 -6.206,-8.04175 -14.39553,-19.8132 -21.37801,-31.68139 z"
         id="path4169"
         style="fill:#363638;fill-opacity:1;stroke:#363638;stroke-width:1.01897204;stroke-linecap:round;stroke-linejoin:round;stroke-miterlimit:4;stroke-opacity:1;display:inline;enable-background:new"
         inkscape:connector-curvature="0" />
      <path
         d="m 147.11715,298.06982 c -2.01334,1.03063 -10.63171,14.86564 -12.92646,18.8168 -3.727,6.41722 -6.47842,13.50354 -7.55464,19.33923 -1.48611,-0.33002 -2.98717,-0.63088 -4.49489,-0.89972 -6.75518,-1.20454 -13.59932,-0.21299 -20.12601,-1.11167 0.64181,-1.92533 3.75304,-13.08946 4.98847,-17.21446 3.11365,-10.39622 5.6631,-15.08616 14.94516,-27.49303 4.42817,-5.91892 7.30903,-9.41173 9.49707,-11.95083 3.87394,7.78339 9.43454,14.25026 15.6713,20.51368 z"
         id="path4116"
         style="fill:#363638;fill-opacity:1;stroke:#363638;stroke-width:1.01897204;stroke-linecap:round;stroke-linejoin:round;stroke-miterlimit:4;stroke-opacity:1;display:inline;enable-background:new"
         inkscape:connector-curvature="0" />
      <path
         d="m 238.14466,322.97926 c -8.18442,-2.63862 -19.13074,-2.532 -24.65324,-0.11427 -10.32702,4.5211 -17.92205,19.89827 -17.49142,35.0445 0.14443,5.08 4.86918,14.07668 7.39466,21.59424 0.42139,-0.82485 1.5818,-6.47873 2.98562,-9.50373 3.24496,-6.99233 8.75715,-12.68558 19.09293,-19.51089 13.22264,-8.73167 22.83842,-13.08722 36.96603,-10.43213 6.8281,1.28325 7.05717,1.65993 12.43904,2.70209 -13.87988,-7.58962 -22.47249,-15.18206 -36.73362,-19.77981 z"
         id="path4080"
         style="fill:#363638;fill-opacity:1;stroke:#363638;stroke-width:1.01897204;stroke-linecap:round;stroke-linejoin:round;stroke-miterlimit:4;stroke-opacity:1;display:inline;enable-background:new"
         inkscape:connector-curvature="0" />
      <path
         d="m 290.7512,327.65041 c -7.70666,3.4411 -14.45717,9.7646 -15.87338,15.1082 -1.14935,-3.30981 -13.00077,-15.06911 -18.63832,-20.24012 17.9372,-7.95994 53.57902,-3.44952 74.21173,1.95681 -13.13683,-2.45163 -28.9615,-1.61975 -39.70003,3.17511 z"
         id="path4082"
         style="fill:#363638;fill-opacity:1;stroke:#363638;stroke-width:1.01897204;stroke-linecap:round;stroke-linejoin:round;stroke-miterlimit:4;stroke-opacity:1;display:inline;enable-background:new"
         inkscape:connector-curvature="0" />
    </g>
  </g>
  <g
     id="layer8"
     style="display:inline"
     transform="translate(-75.039971,-112.375)">
    <path
       d="m 506.66296,846.03557 c 29.29863,0.21735 103.01612,-16.15514 130.86367,-27.92076 37.94472,-16.03168 74.15415,-41.7617 99.94379,-73.13955 27.97886,-34.04144 45.05355,-75.19099 49.67672,-112.97526 3.85826,-31.53281 5.07251,-77.25494 -3.19507,-119.5 -4.7126,-24.08013 -9.42529,-41.32647 -11.87243,-43.93134 -24.08167,-18.86124 -56.89775,-32.07859 -100.31536,-31.51704 -18.17228,0.23504 -48.88056,8.32904 -75.31939,23.93137 -18.4778,10.90429 -31.30508,23.61254 -42.20505,39.82231 8.67753,31.11772 12.25862,83.11113 7.91228,120.69471 -3.98752,34.48079 -16.4662,64.42613 -40.46448,96.482 -21.74083,29.04046 -43.82534,49.21864 -76.38467,64.80832 -33.20257,15.89765 -49.36984,18.99815 -71.30297,19.17659 -33.46221,0.27224 -63.26909,-11.58119 -90.17099,-23.01936 -40.07951,-17.04103 -65.56031,-48.23522 -95.60292,-78.86575 15.03703,24.73004 34.24054,49.19315 54.27391,64.58193 38.18967,29.33565 63.09574,45.44328 112.5,61.27934 50.11824,16.06491 94.34337,19.66728 151.66296,20.09249 z"
       id="path4244"
       style="fill:#fefd9b;fill-opacity:1;stroke:#fefd9b;stroke-width:1.01897204;stroke-linecap:round;stroke-linejoin:round;stroke-miterlimit:4;stroke-opacity:1;display:inline;enable-background:new"
       inkscape:connector-curvature="0" />
  </g>
  <g
     id="layer9"
     style="display:inline"
     transform="translate(-75.039971,-112.375)">
    <path
       d="m 561.11099,491.09905 c -2.06565,2.65358 -4.94622,6.8436 -6.87115,9.70625 8.67753,31.11772 12.25862,83.11113 7.91228,120.69471 -3.98752,34.48079 -16.4662,64.42613 -40.46448,96.482 -21.74083,29.04046 -43.82534,49.21864 -76.38467,64.80832 -33.20257,15.89765 -49.36984,18.99815 -71.30297,19.17659 -33.46221,0.27224 -63.26909,-11.58119 -90.17099,-23.01936 -40.07951,-17.04103 -65.56031,-48.23522 -95.60292,-78.86575 15.03703,24.73004 34.24054,49.19315 54.27391,64.58193 38.18967,29.33565 63.09574,45.44328 112.5,61.27934 50.11824,16.06491 94.34337,19.66728 151.66296,20.09249 29.29863,0.21735 103.01612,-16.15514 130.86367,-27.92076 23.34967,-9.86526 46.04225,-23.40297 66.05408,-39.6693 -36.09362,23.32622 -168.06513,26.89514 -201.59433,-21.94796 21.0856,-16.4934 46.93409,-42.62514 59.99012,-78.5061 11.27008,-30.97276 15.67004,-66.78827 13.73468,-101.24663 -1.68753,-30.04584 -1.36775,-61.33602 -14.60019,-85.64577 z"
       id="path4268"
       style="fill:#c1c177;fill-opacity:1;stroke:#c1c177;stroke-width:1.01897204;stroke-linecap:round;stroke-linejoin:round;stroke-miterlimit:4;stroke-opacity:1;display:inline;enable-background:new"
       inkscape:connector-curvature="0" />
  </g>
  <g
     id="layer10"
     style="display:inline"
     transform="translate(-75.039971,-112.375)">
    <g
       id="g3060">
      <path
         d="M 664.73192,405.31927 C 652.89393,400.29633 637.39333,383.9486 637.25,371.91673 c -0.0524,-4.4011 1.49016,-11.05386 2.92864,-12.74202 18.01607,-0.0622 52.78744,-1.64655 83.01591,-9.40288 16.88405,-4.33228 31.92693,-7.33297 42.79444,-14.87265 -10.36757,-11.13581 -29.43393,-11.01945 -40.40928,-10.84308 -15.71046,0.25246 -33.33281,1.32452 -51.19843,6.58283 -12.18952,3.58768 -35.86566,10.86856 -47.83395,17.97428 -3.21982,9.62964 -3.00585,14.46366 -3.04949,19.27067 -0.13316,14.66812 5.36597,20.94623 16.23074,30.04346 3.75721,3.14595 11.71702,7.32873 25.00334,7.39193 z"
         id="path3038"
         style="fill:#ff9f00;fill-opacity:1;stroke:#ff9f00;stroke-width:1.01897204;stroke-linecap:round;stroke-linejoin:round;stroke-miterlimit:4;stroke-opacity:1;display:inline;enable-background:new"
         inkscape:connector-curvature="0" />
      <path
         d="m 651.9375,872.20123 c 0.35504,-2.68316 -11.35539,-16.3963 -18.99317,-26.31788 -3.90376,-5.07103 -8.28624,-11.8075 -12.94065,-18.24404 1.98437,1.61189 8.19034,7.06135 12.75002,9.67726 9.68701,5.55747 21.04519,10.08329 31.7497,9.9947 7.4659,-0.0618 12.39142,-1.46355 12.00553,-4.43692 -0.33554,-2.5854 -9.34843,-7.72509 -13.72066,-10.17818 -7.15457,-4.01418 -15.05309,-7.33757 -19.63667,-8.07745 -15.34166,4.9389 -35.3629,10.33908 -50.5132,14.27674 3.11942,5.45351 10.93922,14.03698 24.69815,23.88522 7.07895,5.06691 16.38582,8.10449 24.41345,10.70857 1.78791,0.57998 9.75469,1.98284 10.1875,-1.28802 z"
         id="path3034"
         style="fill:#ff9f00;fill-opacity:1;stroke:#ff9f00;stroke-width:1.01897204;stroke-linecap:round;stroke-linejoin:round;stroke-miterlimit:4;stroke-opacity:1;display:inline;enable-background:new"
         inkscape:connector-curvature="0" />
      <path
         d="m 425.45307,900.17414 c 0.79761,-2.07853 -0.88431,-15.49114 -3.00351,-22.8912 -0.86629,-3.025 -2.85729,-8.3435 -4.54032,-12.6342 -1.95828,-4.9924 -5.61179,-13.35915 -10.90262,-25.56512 6.01151,8.30754 11.1132,16.7763 16.94784,22.16351 5.55239,5.1266 11.67416,10.20385 16.4888,12.52851 8.26907,3.99256 20.71185,8.85309 25.66917,8.40948 3.83365,-0.34306 1.33558,-8.10922 -8.78487,-19.60954 -5.286,-6.00672 -9.62658,-9.61314 -14.23824,-13.8585 -11.40501,-0.23838 -23.58137,-2.17494 -33.89285,-3.5626 -15.21796,-2.04795 -32.30691,-6.02491 -46.06488,-10.12905 5.26195,14.81604 14.51236,29.41933 22.9527,39.45611 10.19032,12.11777 23.04666,21.60893 28.98486,24.64055 3.09783,1.58153 9.58013,3.14669 10.38392,1.05205 z"
         id="path3032"
         style="fill:#ff9f00;fill-opacity:1;stroke:#ff9f00;stroke-width:1.01897204;stroke-linecap:round;stroke-linejoin:round;stroke-miterlimit:4;stroke-opacity:1;display:inline;enable-background:new"
         inkscape:connector-curvature="0" />
    </g>
  </g>
  <g
     id="layer11"
     style="display:inline;fill-opacity:1;fill:url(#linearGradient3037)"
     transform="translate(-75.039971,-112.375)">
    <path
       d="m 765.98899,334.89918 c -10.36757,-11.13581 -29.43393,-11.01945 -40.40928,-10.84308 -15.71046,0.25246 -33.33281,1.32453 -51.19843,6.58283 -6.44431,1.89672 -16.09911,4.82569 -25.53709,8.21529 2.07388,2.79091 50.05228,-4.08251 71.46539,-4.5795 17.23333,-0.39999 38.79666,-2.73102 45.67941,0.62446 z"
       id="path3067"
       style="fill:url(#linearGradient3037);fill-opacity:1.0;stroke:none;display:inline;enable-background:new"
       inkscape:connector-curvature="0" />
  </g>
  <g
     id="layer2"
     style="display:inline"
     transform="translate(-75.039971,-112.375)">
    <g
       id="g3937">
      <path
         d="m 655.91084,829.15734 c -4.93806,-2.31778 -9.6241,-4.03255 -12.75924,-4.53862 -15.34166,4.9389 -35.3629,10.33908 -50.5132,14.27674 3.11942,5.45351 10.93922,14.03697 24.69815,23.88522 2.87618,2.05869 6.12015,3.78238 9.49668,5.2781 -13.97045,-9.42747 -16.20835,-19.77174 -16.18344,-24.61049 0.0212,-4.11531 3.9106,-6.4236 7.43948,-6.54135 3.76489,-0.12563 9.93293,4.43344 14.85506,8.97641 -3.90376,-5.07103 -8.28624,-11.8075 -12.94065,-18.24404 1.98437,1.61189 8.19034,7.06135 12.75002,9.67726 4.12977,2.36927 8.56328,4.55103 13.12039,6.26769 -5.69299,-2.77811 -8.74325,-6.91254 -8.91915,-10.21684 -0.22711,-4.2664 5.23361,-7.35719 18.9559,-4.21008 z"
         id="path3930"
         style="fill:#c27b03;fill-opacity:1;stroke:#c27b03;stroke-width:1.01897204;stroke-linecap:round;stroke-linejoin:round;stroke-miterlimit:4;stroke-opacity:1;display:inline;enable-background:new"
         inkscape:connector-curvature="0" />
      <path
         d="m 451.10323,856.07704 c -2.73928,-2.63611 -5.33071,-4.88988 -8.01391,-7.35996 -11.40501,-0.23838 -23.58137,-2.17494 -33.89285,-3.5626 -15.21796,-2.04795 -32.30691,-6.02491 -46.06488,-10.12905 5.26195,14.81604 14.51236,29.41933 22.9527,39.45611 1.69808,2.01927 3.4702,3.9656 5.27199,5.82126 -7.4172,-10.81143 -11.5463,-18.61879 -11.52968,-25.0646 0.0209,-8.09485 3.79431,-9.71543 11.11739,-9.48182 17.29225,0.55163 22.87576,10.33296 31.50557,31.52656 -0.86629,-3.025 -2.85729,-8.3435 -4.54032,-12.6342 -1.95828,-4.9924 -5.61179,-13.35915 -10.90262,-25.56512 6.01151,8.30754 11.1132,16.7763 16.94784,22.16351 5.55239,5.1266 11.67416,10.20385 16.4888,12.52851 -15.11234,-11.93031 -16.15239,-17.35844 -16.2831,-20.89963 -0.12227,-3.31229 5.45454,-3.63403 14.8923,-2.89575 3.08222,0.24112 7.10574,1.88128 12.05077,6.09678 z"
         id="path3893"
         style="fill:#c27b03;fill-opacity:1;stroke:#c27b03;stroke-width:1.01897204;stroke-linecap:round;stroke-linejoin:round;stroke-miterlimit:4;stroke-opacity:1;display:inline;enable-background:new"
         inkscape:connector-curvature="0" />
    </g>
  </g>
  <g
     id="layer12"
     style="display:inline"
     transform="translate(-75.039971,-112.375)">
    <path
       d="M 669.40402,364.9586 644,364.8125 c -0.0485,2.30233 0.0428,5.12023 0.0654,6.36784 0.0847,4.68268 4.15617,12.36155 11.21984,18.91026 2.89747,2.68624 11.40976,9.35995 15.77553,10.13958 1.8609,-5.39591 -1.04081,-33.2857 -1.65675,-35.27158 z"
       id="path3954"
       style="fill:#fe94d1;fill-opacity:1;stroke:#fe94d1;stroke-width:1.01897204;stroke-linecap:round;stroke-linejoin:round;stroke-miterlimit:4;stroke-opacity:1;display:inline;enable-background:new"
       inkscape:connector-curvature="0" />
  </g>
  <g
     id="layer3"
     style="display:inline"
     transform="translate(-75.039971,-112.375)">
    <path
       d="m 670.13695,370.12365 c -0.31042,-2.75355 -0.58638,-4.69254 -0.73293,-5.16505 L 644,364.8125 c -0.0485,2.30233 0.0428,5.12023 0.0654,6.36784 0.0291,1.60695 0.52764,3.56675 1.45551,5.71264 1.84154,-3.18692 2.44169,-6.67418 12.54931,-7.17463 3.03797,-0.15041 7.04852,-0.0879 12.06673,0.4053 z"
       id="path3990"
       style="fill:#c37aa4;fill-opacity:1;stroke:#c37aa4;stroke-width:1.01897204;stroke-linecap:round;stroke-linejoin:round;stroke-miterlimit:4;stroke-opacity:1;display:inline;enable-background:new"
       inkscape:connector-curvature="0" />
  </g>
  <g
     id="layer5"
     style="display:inline"
     transform="translate(-75.039971,-112.375)">
    <path
       d="m 652.88384,330.10065 c -0.34125,-6.99885 -5.81312,-10.64576 -9.29175,-10.63 -9.53111,0.0432 -15.26679,4.9131 -16.12084,13.80135 -0.41507,4.31973 -0.39626,4.82191 -0.3341,7.37445 5.80186,-3.93441 20.9614,-9.9993 25.74669,-10.5458 z"
       id="path3960"
       style="fill:#f48f8e;fill-opacity:1;stroke:#f48f8e;stroke-width:1.01897204;stroke-linecap:round;stroke-linejoin:round;stroke-miterlimit:4;stroke-opacity:1;display:inline;enable-background:new"
       inkscape:connector-curvature="0" />
  </g>
  <g
     id="layer15"
     style="display:inline"
     transform="translate(-75.039971,-112.375)">
    <path
       d="m 630.00231,325.61685 c -1.38198,2.06369 -2.24,4.62607 -2.53106,7.65515 -0.41507,4.31973 -0.39626,4.82191 -0.3341,7.37445 5.80186,-3.93441 20.9614,-9.9993 25.74669,-10.5458 -8.50405,-0.75863 -18.51612,3.96317 -21.00909,3.26196 -2.19987,-0.61877 -2.03879,-4.58322 -1.87244,-7.74576 z"
       id="path4133"
       style="fill:#bf777d;fill-opacity:1;stroke:#bf777d;stroke-width:1.01897204;stroke-linecap:round;stroke-linejoin:round;stroke-miterlimit:4;stroke-opacity:1;display:inline;enable-background:new"
       inkscape:connector-curvature="0" />
  </g>
  <g
     id="layer4"
     style="display:inline"
     transform="translate(-75.039971,-112.375)">
    <path
       d="m 608.5,327.75 c 0,7.31777 -3.74962,13.25 -8.375,13.25 -4.62538,0 -8.375,-5.93223 -8.375,-13.25 0,-7.31777 3.74962,-13.25 8.375,-13.25 4.62538,0 8.375,5.93223 8.375,13.25 z m -90.45,18.82896 c 0,9.50026 -4.8745,17.20175 -10.8875,17.20175 -6.01299,0 -10.8875,-7.70149 -10.8875,-17.20175 0,-9.50026 4.87451,-17.20175 10.8875,-17.20175 6.013,0 10.8875,7.70149 10.8875,17.20175 z M 339.52292,776.69681 c 39.08248,-15.84556 62.96413,-32.8511 88.61287,-62.71641 21.94896,-25.55731 35.60259,-51.28405 40.38586,-79.38833 2.23665,-13.14157 1.73274,-56.80138 -0.71001,-72.797 -3.6238,-23.72925 -10.06298,-43.30012 -20.34606,-66.49037 -4.80995,-10.84734 -13.92301,-38.9475 -12.96852,-39.70411 0.95449,-0.75661 23.22351,41.25294 28.75934,56.37087 9.83537,-11.75561 24.66668,-22.96209 42.02656,-32.05906 29.71945,-15.57368 72.55036,-26.10085 100.42538,-25.38082 42.25638,1.09152 79.87867,11.46682 98.7683,24.7798 -3.92814,-21.53423 -23.53882,-45.68508 -32.2092,-53.31499 1.42564,-3.5729 4.05817,-28.09659 3.44416,-44.48633 -21.24238,6.08087 -48.17128,9.42919 -72.17009,10.86848 0.90932,9.48498 1.84805,14.82335 1.67649,22.4268 -0.1772,7.85307 -0.78229,17.43646 -8.29571,20.97797 -5.04699,2.37895 -12.01577,4.23267 -27.88329,-0.49516 -13.26296,-3.95179 -20.33214,-9.83616 -27.04108,-19.78907 -5.77192,-8.56285 -6.48903,-14.78004 -6.20377,-26.38067 -8.31036,10.9207 -19.0426,15.97676 -32.77162,16.02779 -11.04773,0.0411 -23.01677,-3.10703 -29.20064,-7.47174 -19.8074,-13.98046 -25.24454,-32.04612 -26.22687,-51.4584 -0.91397,-18.06149 4.82545,-41.61871 13.46437,-56.2036 7.20518,-12.16435 16.63393,-18.38506 31.9559,-18.4257 6.93274,-0.0184 15.49977,1.97361 22.21543,4.57128 9.15947,3.54295 21.58144,13.84471 26.27835,22.73977 10.18508,19.28859 7.66091,33.03625 7.47877,50.40457 4.87388,-3.39163 11.12061,-4.07835 16.62687,-4.34083 -4.4862,-5.79288 -4.46336,-21.62091 -4.54039,-30.46156 -0.118,-13.54242 2.89013,-27.43849 10.12684,-38.7302 4.22391,-6.59075 12.71596,-12.62367 23.6297,-12.63352 20.14608,-0.0181 26.83183,12.63026 35.34983,33.32601 7.97728,19.38197 11.65898,40.8493 7.35265,53.13859 2.45859,-0.50202 27.13392,-1.22843 31.42351,-0.93488 -5.37307,-21.04406 -11.90818,-39.34383 -25.56467,-57.88244 -13.9527,-18.9407 -29.52512,-33.37268 -55.19634,-45.53731 -38.3379,-18.16691 -61.78329,-19.51273 -98.9001,-17.91934 -4.25912,0.18284 -6.43941,0.4013 -9.51679,-1.93223 -3.07737,-2.33352 -5.25978,-8.8147 -5.27272,-12.96119 -0.0116,-3.72392 -4.33583,-15.21657 -8.65939,-22.13974 -7.81974,-12.52146 -20.89669,-20.76941 -26.74748,-20.44369 -6.96327,0.38767 -8.75073,14.62053 -8.42808,17.66082 1.61912,15.25674 9.77677,27.59849 17.63003,35.86205 -5.89874,-0.37797 -23.76796,-6.84763 -29.84598,-9.40579 -13.6609,-5.7497 -20.11445,-9.58119 -26.46922,-9.64528 -10.88729,-0.10979 -13.09079,3.61334 -7.49917,11.38429 9.91979,13.78604 32.39719,20.5271 49.75404,26.46082 -19.12884,4.49401 -29.14176,12.60184 -37.56628,19.65154 -23.52016,19.68183 -40.69893,38.40824 -53.78777,60.87044 -9.69185,16.6325 -21.26444,35.5611 -25.5747,46.06135 -0.87403,-3.61012 -1.60312,-9.68735 -1.35316,-16.22306 -10.75814,0.12904 -53.67996,4.27594 -56.53693,7.43004 27.17009,9.10319 67.5743,39.95533 79.26099,58.67371 -32.74609,-23.81455 -75.79767,-46.24539 -108.7278,-58.82542 -15.60892,-5.96295 -71.34707,-14.76979 -96.32956,-5.53838 6.29527,4.80813 19.52935,15.74222 20.81345,18.82001 -15.49934,-7.05684 -25.09442,-14.11647 -41.01935,-18.39157 -9.13927,-2.45346 -21.362662,-2.35432 -27.529454,-0.10626 -11.531839,4.20383 -20.012956,18.5019 -19.532086,32.58524 0.161281,4.72351 5.437251,13.08884 8.259336,20.07871 -7.806851,-6.63295 -23.202055,-19.48486 -37.851003,-19.44797 -13.068796,0.0329 -19.041255,3.3772 -28.2466414,15.25913 -8.65289377,11.16878 -13.0505281,18.7825 -18.5899316,32.21507 -10.168791,24.65845 -12.101744,51.34197 -6.127742,102.14587 4.761263,40.49057 18.377564,76.01312 39.994433,112.50876 9.269249,15.64923 24.275038,34.87919 38.925437,50.21052 12.691419,13.28131 46.741712,42.19033 60.800982,50.44173 46.8715,27.50893 97.46562,41.65879 139.36847,42.86258 29.23435,0.83984 58.08004,-9.23082 76.63125,-16.75219 z M 147.99029,343.3836 c -2.67545,-16.51427 2.306,-30.31195 4.66005,-47.42608 2.78525,-20.24891 3.251,-30.6125 1.76194,-33.85604 -6.64816,-14.48119 -21.75916,-16.83911 -33.1459,-16.39375 -18.53109,0.7248 -25.353311,5.11668 -29.809581,15.03424 -2.049385,4.56098 -3.281515,7.30862 -2.710575,21.39062 0.717023,17.685 4.366457,50.22851 11.982696,63.98143 8.75844,0.51039 16.7184,1.54394 23.8217,5.70385 5.94383,-5.9948 16.32662,-7.27895 23.43967,-8.43427 z m -55.907656,3.49684 C 82.060082,328.5385 81.732776,290.41071 80.850185,268.70614 79.244887,229.22881 71.552349,216.73518 45.0797,213.30825 c -15.053415,-1.94868 -27.371053,0.0814 -43.7713017,7.21395 -18.2368863,7.93133 -27.9707023,22.46894 -28.3460033,38.65365 -0.333369,14.37656 25.0453265,46.80823 40.045197,62.99519 9.600073,10.35983 40.14477,33.34848 54.792891,37.91581 1.099325,-5.44492 18.438456,-15.3735 24.282151,-13.20641 z m 538.415706,4.30113 c 0.79489,-3.45137 2.08594,-7.85939 1.82157,-14.05564 -0.44554,-10.44229 -3.83474,-26.49903 -9.76696,-40.39553 -6.36963,-14.92116 -15.67112,-27.35175 -27.40849,-27.66732 -7.88975,-0.21212 -12.02945,3.38639 -17.25449,9.86069 -7.70544,9.54777 -10.01892,25.7643 -9.76985,41.51548 0.16793,10.62011 2.71221,20.51306 5.75971,25.86422 5.94572,3.78779 8.91229,8.30537 9.73879,13.4968 7.59293,-2.82512 31.45151,-8.65105 46.87972,-8.6187 z m -53.95305,10.13569 c -0.38106,-6.5077 -6.49132,-9.89869 -10.37579,-9.88404 -10.64307,0.0402 -17.04791,4.56832 -18.0016,12.83284 -0.4635,4.01659 -0.44249,4.48353 -0.37308,6.85694 6.47874,-3.65831 23.4069,-9.29759 28.75047,-9.80574 z M 63.206807,364.99707 C 52.938141,359.46811 38.92049,353.83914 31.944573,347.85835 16.351585,334.48973 -0.4755325,324.48575 -7.9872264,308.18294 c -1.7028162,-3.69565 -4.8157256,-6.01788 -7.3928696,-6.19875 -9.964977,-0.69936 -22.764691,13.52556 -28.701882,20.2358 -8.805916,9.95248 -14.308191,21.51024 -10.086155,32.88287 1.235887,3.32903 3.40641,6.5258 7.376968,8.09115 9.615009,3.79062 20.239433,1.43278 30.67379,2.98203 9.5152284,1.41277 18.7931875,3.77639 26.398771,6.66912 4.734276,1.80065 6.808763,4.20088 9.209764,10.68693 5.611418,-1.6499 11.832502,-2.58668 17.856338,-2.83635 8.341477,-0.34573 12.959955,2.32268 21.399454,7.45914 -0.173955,-9.8246 3.267534,-17.31393 4.459855,-23.15781 z M 542.1914,335.65543 c 1.077,-31.0379 -16.96981,-57.1359 -47.4171,-57.98397 -34.53641,-0.96199 -40.65991,50.11836 -40.2316,68.07624 0.51824,21.72899 15.41105,53.94674 47.88857,53.47208 35.48572,-0.51864 39.02262,-42.31039 39.76013,-63.56435 z m 52.80142,58.0736 -28.36782,-0.13584 c -0.0542,2.14076 0.0478,4.76091 0.073,5.92097 0.0946,4.35407 4.64106,11.49407 12.52882,17.58322 3.23551,2.49773 12.7409,8.70311 17.61601,9.42803 2.078,-5.01725 -1.16224,-30.94986 -1.85004,-32.79638 z m -5.21717,37.52834 c -13.21909,-4.67045 -30.5281,-19.87097 -30.68815,-31.0585 -0.0585,-4.09225 1.66401,-10.27815 3.27032,-11.84784 20.11794,-0.0578 58.94597,-1.531 92.7011,-8.74303 18.85385,-4.02826 35.65174,-6.81837 47.78712,-13.82895 -11.57712,-10.35435 -32.86789,-10.24616 -45.12369,-10.08216 -17.54335,0.23474 -37.22164,1.23157 -57.17159,6.12087 -13.61163,3.33592 -40.04998,10.10586 -53.41457,16.71293 -3.59547,8.95387 -3.35654,13.44866 -3.40527,17.91834 -0.14869,13.63878 5.992,19.47632 18.12433,27.93514 4.19555,2.92519 13.08401,6.81444 27.9204,6.8732 z m -176.51034,409.7888 c 32.7168,0.2021 115.03466,-15.02144 146.1311,-25.9614 42.3716,-14.90665 82.80546,-38.83105 111.60389,-68.00695 31.24307,-31.65256 50.3098,-69.91442 55.47234,-105.04716 4.30839,-29.31998 5.66431,-71.83353 -3.56783,-111.11402 -5.2624,-22.3903 -10.5249,-38.42637 -13.25754,-40.84844 -26.8912,-17.53764 -63.53582,-29.82746 -112.01882,-29.30531 -20.29238,0.21854 -54.58329,7.74454 -84.10666,22.25197 -20.63354,10.13908 -34.95733,21.95552 -47.12897,37.02776 9.68991,28.93402 13.68879,77.27876 8.83538,112.22489 -4.45273,32.06109 -18.38726,59.905 -45.18533,89.71133 -24.27727,27.00253 -48.9383,45.7647 -85.29622,60.26036 -37.0762,14.78203 -55.12966,17.66495 -79.62165,17.83086 -37.36614,0.25314 -70.65049,-10.76847 -100.69094,-21.40396 -44.75545,-15.84517 -73.209014,-44.85029 -106.756596,-73.3313 16.791351,22.99459 38.23527,45.74099 60.605866,60.04985 42.64513,27.27701 70.45691,42.25428 125.625,56.97903 55.96537,14.93755 105.3501,18.28712 169.35698,18.68249 z m 162.22323,24.32947 c 0.39646,-2.49486 -12.68018,-15.24568 -21.20904,-24.471 -4.3592,-4.71517 -9.25297,-10.97891 -14.45039,-16.96376 2.21588,1.49878 9.14588,6.56582 14.23752,8.99815 10.81716,5.16748 23.50047,9.37569 35.45384,9.29332 8.33692,-0.0575 13.83708,-1.36084 13.40617,-4.12556 -0.37469,-2.40396 -10.43908,-7.18297 -15.3214,-9.46392 -7.98927,-3.73248 -16.80929,-6.82265 -21.92762,-7.51061 -17.13152,4.59231 -39.48857,9.61353 -56.40641,13.27486 3.48336,5.07081 12.21547,13.05193 27.57961,22.20907 7.90482,4.71133 18.29749,7.53575 27.26168,9.95709 1.9965,0.53928 10.89274,1.84369 11.37604,-1.19764 z m -252.90761,26.0099 c 0.89066,-1.93267 -0.98748,-14.40404 -3.35392,-21.2848 -0.96736,-2.81272 -3.19064,-7.75799 -5.07003,-11.74759 -2.18674,-4.64205 -6.26649,-12.42166 -12.17459,-23.77107 6.71285,7.72455 12.40974,15.59901 18.92509,20.60817 6.20017,4.76684 13.03615,9.48779 18.41249,11.64932 9.2338,3.71238 23.12824,8.23182 28.66391,7.81934 4.28091,-0.31899 1.4914,-7.54015 -9.80977,-18.23343 -5.9027,-5.5852 -10.74968,-8.93853 -15.89937,-12.88597 -12.73559,-0.22165 -26.33253,-2.02232 -37.84702,-3.3126 -16.99338,-1.90423 -36.07605,-5.6021 -51.43911,-9.41823 5.87584,13.77631 16.20547,27.35481 25.63051,36.68725 11.37919,11.2674 25.73544,20.09251 32.36643,22.91139 3.45924,1.47054 10.69781,2.92587 11.59538,0.97822 z m -29.59703,2.29051 C 281.51228,886.96188 269.25393,874.76021 259.56892,864.52986 248.8514,853.20884 245.30805,844.64041 241.14933,831.40997 211.23961,825.47726 172.71482,810.41628 143.6875,795.2262 104.52548,774.73262 74.471037,747.29229 51.367315,717.28377 34.12042,694.88246 21.364882,670.84417 8.2504917,648.30698 -16.892844,605.09793 -27.668544,565.85282 -31.466115,529.2695 c -5.091866,-49.05176 1.914045,-89.24452 18.258997,-117.13794 6.9537846,-11.86695 14.498945,-17.03097 20.1577651,-25.02649 2.0778933,-2.93592 -0.9635382,-7.44068 -30.8400331,-9.33633 -26.178048,-1.66099 -36.186586,-6.18275 -40.590202,-15.98315 -4.973024,-11.06762 -5.240981,-22.9835 1.306118,-34.34765 9.184484,-15.942 29.099838,-33.16568 40.757805,-34.09281 -15.618549,-10.36588 -19.894127,-32.00183 -14.21759,-50.61768 6.169963,-20.234 37.25921367,-38.76084 67.816585,-40.31465 19.649358,-0.99915 35.43429,3.80344 45.654281,12.47551 7.709288,5.64011 12.436372,21.3684 13.794004,27.60696 8.686417,-4.94476 24.389775,-7.04743 34.212135,-7.2468 21.56735,-0.43777 35.17939,8.89615 41.22946,21.35333 4.7049,9.68744 2.93823,23.75421 -1.22716,44.70668 -4.51608,22.71647 -4.42394,34.92989 -2.24868,36.63649 2.17525,1.7066 2.29124,1.56308 19.75471,2.29445 23.37769,0.97907 40.72816,6.26806 56.90512,12.0277 25.66889,-7.0213 62.93378,-10.27014 81.84835,-10.22108 5.64574,-17.1686 18.93034,-40.20769 33.7889,-55.79217 15.26242,-16.00807 18.66823,-22.78477 47.58055,-43.59165 -12.84096,-3.22912 -32.55686,-20.77651 -33.43021,-34.81051 -0.54329,-8.73033 5.72676,-13.68944 20.18424,-13.90117 14.02486,-0.2054 20.50892,3.89034 31.07715,8.04069 -2.7666,-7.4511 -5.82874,-21.57978 0.98087,-32.356 3.89863,-6.16959 11.16636,-10.2997 18.54217,-10.2997 12.15307,0 27.01957,9.57645 36.38642,25.2805 8.3333,13.97125 10.98153,23.10112 10.61639,33.79905 40.00445,-4.35214 49.85964,-1.07027 64.43939,2.3359 43.69849,10.20901 76.2892,31.38988 101.02799,62.74464 18.8151,23.84687 24.5351,43.47408 29.92031,64.35216 18.38479,2.21032 32.10869,6.40289 32.26934,16.39284 0.1446,8.99337 -16.30167,14.29577 -27.82239,16.97428 3.08075,15.96617 2.25703,33.97731 -3.20621,41.39744 21.62097,7.40914 40.46672,67.47489 47.07979,91.22974 8.73312,31.3704 11.81051,57.92535 11.81635,88.58258 0.006,30.78099 -3.45445,52.20649 -15.01171,81.91302 -11.54697,29.68011 -35.73669,63.89541 -61.06629,84.7658 -22.68398,18.6905 -53.44624,35.96219 -79.00118,46.89072 6.22366,2.8528 17.21435,7.3796 23.53941,13.65025 3.26192,3.23387 5.56145,6.8417 5.63942,9.88642 0.19937,7.78494 -8.77097,11.37234 -26.17576,11.58888 -3.63753,0.0453 -6.01664,-0.53414 -10.76776,-0.87046 0.90201,1.40709 3.28714,3.54557 5.44764,6.81844 4.11572,6.23478 4.05711,10.81129 1.82639,14.88801 -2.00699,3.66786 -7.21422,6.18961 -14.75082,6.01384 -7.12599,-0.1662 -16.21976,-1.50411 -27.26935,-5.37836 -8.94462,-3.1362 -19.46412,-9.13304 -27.94374,-15.56829 -8.42534,-6.39404 -13.24315,-10.75791 -20.69603,-19.5033 -19.65618,4.54274 -29.07713,6.88649 -58.57162,9.94029 -23.90285,2.47485 -56.21385,3.90268 -70.20325,2.78145 8.037,5.84683 14.88495,13.91482 15.52308,22.3092 0.57569,7.57304 -2.50746,12.58742 -13.44324,12.63161 -6.46448,0.0261 -19.47578,-3.07622 -29.78244,-7.04141 -5.14863,-1.98079 -7.29195,-2.95079 -8.96543,-3.75579 3.01475,5.48263 5.67602,10.64468 5.84582,17.18097 0.21032,8.09641 -7.70828,11.51897 -15.21507,11.53471 -10.73571,0.0225 -20.7499,-4.98763 -28.33077,-9.42461 z"
       transform="matrix(0.89552238,0,0,1.0754718,136.57463,-58.485872)"
       id="path3985-5"
       style="fill:#000000;stroke:#000000;stroke-width:1.01897204;stroke-linecap:round;stroke-linejoin:round;stroke-miterlimit:4;stroke-opacity:1;display:inline;enable-background:new"
       inkscape:connector-curvature="0" />
  </g>
</svg>
