<?xml version="1.0" encoding="utf-8"?>
<!-- Generator: Adobe Illustrator 21.1.0, SVG Export Plug-In . SVG Version: 6.00 Build 0)  -->
<svg version="1.1"
	 id="svg3039" inkscape:version="0.48.4 r" sodipodi:docname="Export.svg" xmlns:cc="http://creativecommons.org/ns#" xmlns:dc="http://purl.org/dc/elements/1.1/" xmlns:inkscape="http://www.inkscape.org/namespaces/inkscape" xmlns:rdf="http://www.w3.org/1999/02/22-rdf-syntax-ns#" xmlns:sodipodi="http://sodipodi.sourceforge.net/DTD/sodipodi-0.dtd" xmlns:svg="http://www.w3.org/2000/svg"
	 xmlns="http://www.w3.org/2000/svg" xmlns:xlink="http://www.w3.org/1999/xlink" x="0px" y="0px" viewBox="0 0 833.1 918"
	 style="enable-background:new 0 0 833.1 918;" xml:space="preserve">
<style type="text/css">
	.st0{fill:#FFFFFF;}
	.st1{fill:#6C6C6C;stroke:#6C6C6C;stroke-linecap:round;stroke-linejoin:round;}
	.st2{fill:#505050;stroke:#505050;stroke-linecap:round;stroke-linejoin:round;}
	.st3{fill:#505050;stroke:#505050;stroke-width:1.019;stroke-linecap:round;stroke-linejoin:round;}
	.st4{fill:#363638;stroke:#363638;stroke-width:1.019;stroke-linecap:round;stroke-linejoin:round;}
	.st5{fill:#FEFD9B;stroke:#FEFD9B;stroke-width:1.019;stroke-linecap:round;stroke-linejoin:round;}
	.st6{fill:#C1C177;stroke:#C1C177;stroke-width:1.019;stroke-linecap:round;stroke-linejoin:round;}
	.st7{fill:#FF9F00;stroke:#FF9F00;stroke-width:1.019;stroke-linecap:round;stroke-linejoin:round;}
	.st8{fill:url(#path3067_1_);}
	.st9{fill:#C27B03;stroke:#C27B03;stroke-width:1.019;stroke-linecap:round;stroke-linejoin:round;}
	.st10{fill:#FE94D1;stroke:#FE94D1;stroke-width:1.019;stroke-linecap:round;stroke-linejoin:round;}
	.st11{fill:#C37AA4;stroke:#C37AA4;stroke-width:1.019;stroke-linecap:round;stroke-linejoin:round;}
	.st12{fill:#F48F8E;stroke:#F48F8E;stroke-width:1.019;stroke-linecap:round;stroke-linejoin:round;}
	.st13{fill:#BF777D;stroke:#BF777D;stroke-width:1.019;stroke-linecap:round;stroke-linejoin:round;}
	.st14{stroke:#000000;stroke-width:1.019;stroke-linecap:round;stroke-linejoin:round;}
</style>
<sodipodi:namedview  bordercolor="#666666" borderopacity="1" fit-margin-bottom="0" fit-margin-left="0" fit-margin-right="0" fit-margin-top="0" gridtolerance="10" guidetolerance="10" id="namedview60" inkscape:current-layer="svg3039" inkscape:cx="161.13236" inkscape:cy="291.67978" inkscape:pageopacity="0" inkscape:pageshadow="2" inkscape:window-height="841" inkscape:window-maximized="1" inkscape:window-width="1600" inkscape:window-x="-8" inkscape:window-y="-8" inkscape:zoom="0.69532167" objecttolerance="10" pagecolor="#ffffff" showgrid="false">
	</sodipodi:namedview>
<g>
	<circle class="st0" cx="603.6" cy="250.2" r="95.6"/>
	<g id="layer6" transform="translate(-75.039971,-112.375)">
		<path id="path4068" inkscape:connector-curvature="0" class="st1" d="M246.1,392.6c-9.2-5.9-21.7-12-28-18.4
			c-14-14.4-29-25.1-35.8-42.7c-1.5-4-4.3-6.5-6.6-6.7c-8.9-0.8-20.4,14.5-25.7,21.8c-7.9,10.7-12.8,23.1-9,35.4
			c1.1,3.6,3.1,7,6.6,8.7c8.6,4.1,18.1,1.5,27.5,3.2c8.5,1.5,16.8,4.1,23.6,7.2c4.2,1.9,6.1,4.5,8.2,11.5c5-1.8,10.6-2.8,16-3.1
			c7.5-0.4,11.6,2.5,19.2,8C241.9,406.9,245,398.8,246.1,392.6L246.1,392.6z M271.9,373.1c-9-19.7-9.3-60.7-10.1-84.1
			c-1.4-42.5-8.3-55.9-32-59.6c-13.5-2.1-24.5,0.1-39.2,7.8c-16.3,8.5-25,24.2-25.4,41.6c-0.3,15.5,22.4,50.3,35.9,67.7
			c8.6,11.1,36,35.9,49.1,40.8C251.2,381.4,266.7,370.7,271.9,373.1z M322,369.3c-2.4-17.8,2.1-32.6,4.2-51
			c2.5-21.8,2.9-32.9,1.6-36.4c-6-15.6-19.5-18.1-29.7-17.6c-16.6,0.8-22.7,5.5-26.7,16.2c-1.8,4.9-2.9,7.9-2.4,23
			c0.6,19,3.9,54,10.7,68.8c7.8,0.5,15,1.7,21.3,6.1C306.3,371.9,315.6,370.6,322,369.3z M493.5,835.3c35-17,56.4-35.3,79.4-67.4
			c19.7-27.5,31.9-55.2,36.2-85.4c2-14.1,1.6-61.1-0.6-78.3c-3.2-25.5-9-46.6-18.2-71.5c-4.3-11.7-13.9-40.8-11.6-42.7
			s20.8,44.4,25.8,60.6c8.8-12.6,22.1-24.7,37.6-34.5c26.6-16.7,65-28.1,89.9-27.3c37.8,1.2,71.5,12.3,88.4,26.6
			c-3.5-23.2-21.1-49.1-28.8-57.3c1.3-3.8,3.6-30.2,3.1-47.8c-19,6.5-43.1,10.1-64.6,11.7c0.8,10.2,1.7,15.9,1.5,24.1
			c-0.2,8.4-0.7,18.8-7.4,22.6c-4.5,2.6-10.8,4.6-25-0.5c-11.9-4.3-18.2-10.6-24.2-21.3c-5.2-9.2-5.8-15.9-5.6-28.4
			c-7.4,11.7-17.1,17.2-29.3,17.2c-9.9,0-20.6-3.3-26.1-8c-17.7-15-22.6-34.5-23.5-55.3c-0.8-19.4,4.3-44.8,12.1-60.4
			c6.5-13.1,14.9-19.8,28.6-19.8c6.2,0,13.9,2.1,19.9,4.9c8.2,3.8,19.3,14.9,23.5,24.5c9.1,20.7,6.9,35.5,6.7,54.2
			c4.4-3.6,10-4.4,14.9-4.7c-4-6.2-4-23.3-4.1-32.8c-0.1-14.6,2.6-29.5,9.1-41.7c3.8-7.1,11.4-13.6,21.2-13.6
			c18,0,24,13.6,31.7,35.8c7.1,20.8,10.4,43.9,6.6,57.1c2.2-0.5,24.3-1.3,28.1-1c-4.8-22.6-10.7-42.3-22.9-62.3
			c-12.5-20.4-26.4-35.9-49.4-49c-34.3-19.5-55.3-21-88.6-19.3c-3.8,0.2-5.8,0.4-8.5-2.1c-2.8-2.5-4.7-9.5-4.7-13.9
			c0-4-3.9-16.4-7.8-23.8c-7-13.5-18.7-22.3-24-22c-6.2,0.4-7.8,15.7-7.5,19c1.4,16.4,8.8,29.7,15.8,38.6
			c-5.3-0.4-21.3-7.4-26.7-10.1c-12.2-6.2-18-10.3-23.7-10.4c-9.7-0.1-11.3,3.7-6.7,12.2c9.3,14.6,29,22.1,44.6,28.5
			c-17.1,4.8-26.1,13.6-33.6,21.1c-21.1,21.2-36.4,41.3-48.2,65.5c-8.7,17.9-19,38.2-22.9,49.5c-0.8-3.9-1.4-10.4-1.2-17.4
			c-9.6,0.1-48.1,4.6-50.6,8c24.3,9.8,60.5,43,71,63.1c-29.3-25.6-67.9-49.7-97.4-63.3c-14-6.4-63.9-15.9-86.3-6
			c5.6,5.2,17.5,16.9,18.6,20.2c-13.9-7.6-22.5-15.2-36.7-19.8c-8.2-2.6-19.1-2.5-24.7-0.1c-10.3,4.5-17.9,19.9-17.5,35
			c0.1,5.1,4.9,14.1,7.4,21.6c-7-7.1-20.8-21-33.9-20.9c-11.7,0-17.1,3.6-25.3,16.4c-7.7,12-11.7,20.2-16.6,34.6
			c-9.1,26.5-10.5,55.2-5.5,109.9c4.6,43.5,16.5,81.8,35.8,121c8.3,16.8,21.7,37.5,34.9,54c11.4,14.3,41.9,45.4,54.4,54.2
			c42,29.6,87.3,44.8,124.8,46.1C451.1,854.2,476.9,843.4,493.5,835.3L493.5,835.3z"/>
	</g>
	<g id="layer14" transform="translate(-75.039971,-112.375)">
		<g id="g3185">
			<path id="path3057" inkscape:connector-curvature="0" class="st2" d="M578.6,490c2.3-1.9,20.8,44.4,25.8,60.6
				c1.8-2.6,3.8-5.1,5.9-7.6C597.4,520.2,579.6,486.6,578.6,490z"/>
			<path id="path3071" inkscape:connector-curvature="0" class="st2" d="M791.5,458.2c0.8-2.4,2.1-14,2.7-26.6
				c-4.9,8.9-11.1,20.1-10.3,21S786.9,454.8,791.5,458.2z"/>
			<path id="path3078" inkscape:connector-curvature="0" class="st2" d="M576.4,209.8c2.7,12.7,8.7,23.1,14.6,30.4
				c2.6,0.1,0-4.8-4.1-11.1C583,223.3,579.5,216.7,576.4,209.8z"/>
			<path id="path3065" inkscape:connector-curvature="0" class="st2" d="M532,228.5c0.4,1.1,1,2.2,1.8,3.5
				c8.9,14.8,29,22.1,44.6,28.5c2.2-1.6,6.7-3.9,3.7-4.6C565.6,252.3,541.1,240.4,532,228.5z"/>
			<path id="path3053" inkscape:connector-curvature="0" class="st2" d="M433.6,383.7c-6.2,1.1-10.9,2.4-11.8,3.5
				c14.1,5.7,32.1,19.1,46.8,33.4C458.2,407.7,450.1,393.9,433.6,383.7L433.6,383.7z"/>
			<path id="path3084" inkscape:connector-curvature="0" class="st2" d="M222,719.1c7.1,11.6,15.5,23.6,23.7,33.9
				c11.4,14.3,41.9,45.4,54.4,54.2c42,29.6,87.3,44.8,124.8,46.1c26.2,0.9,52-9.9,68.6-18c21.4-10.4,37.7-21.3,52.4-35.5
				c-39.1,35.4-104.7,42.6-158.4,29.5C331.8,815.8,272.1,780.1,222,719.1z"/>
			<path id="path3049" inkscape:connector-curvature="0" class="st2" d="M271.3,333.9c1.8,14.9,4.5,29.9,8.4,38.4
				c7.8,0.5,15,1.7,21.3,6.1c5.3-6.4,14.6-7.8,21-9.1c-0.2-1.8-0.4-3.6-0.5-5.3c-5.5,1.4-12.7,4.1-20.2,4.4
				c-7.6,0.2-20.4-4.1-22.2-5.8C277.3,360.9,273.8,342.7,271.3,333.9L271.3,333.9z"/>
			<path id="path3047" inkscape:connector-curvature="0" class="st2" d="M243.1,383.7c2.6,1.6,5,2.9,7.1,3.6
				c1-5.9,16.5-16.5,21.7-14.2c-1-2.2-1.9-4.6-2.7-7.3C258.6,369.6,249,376.5,243.1,383.7L243.1,383.7z"/>
			<path id="path3041" inkscape:connector-curvature="0" class="st2" d="M198.7,401c4.2,1.9,6.1,4.5,8.2,11.5c5-1.8,10.6-2.8,16-3.1
				c7.5-0.4,11.6,2.5,19.2,8c-0.2-10.6,2.9-18.6,4-24.9c-9.2-5.9-21.7-12-28-18.4c-6-6.2-12.2-11.7-17.9-17.4
				c3.9,7.1,23.7,28.9,38.6,35.3c-3.7,5.4-8.5,9.3-10.1,10c-1.6,0.8-15.9,2.4-21.1,4.1C203.5,401.9,200.1,400.6,198.7,401L198.7,401
				z"/>
			<path id="path3164" inkscape:connector-curvature="0" class="st3" d="M722,469.7c-4.4,1.9-10.7,2.8-22.9-1.6
				c-10.7-3.8-16.9-9.3-22.4-18.2C685.5,479.7,723.1,491.2,722,469.7z"/>
		</g>
	</g>
	<g id="layer7" transform="translate(-75.039971,-112.375)">
		<g id="g4193">
			<path id="path4071" inkscape:connector-curvature="0" class="st4" d="M459.3,424.2c-40.4,1.1-73.3,15.5-97.4,28.4
				c-33.7,18-48.9,26-65.5,40.2c-34.7,29.7-65.5,66.5-82.8,98.7c-9.8,18.3-21.8,52.5-21.8,62.7c-8.5-24.4-14.2-49.3-16.8-76.2
				c-1.4-13.8-2.2-25.9-2.7-36.8c32.2-40.8,70.7-77.2,113.8-103.8c38.5-23.8,83.8-38.7,116.1-47.2
				C419.8,398.8,440,410.8,459.3,424.2L459.3,424.2z"/>
			<path id="path4078" inkscape:connector-curvature="0" class="st4" d="M222.4,417.1c-11.7,0-17.1,3.6-25.3,16.4
				c-7.7,12-11.7,20.2-16.6,34.6c-1,2.9-1.9,5.8-2.7,8.7c3.2-5.9,26.1-26.9,34-30.6c9.1-4.3,22.5-7.7,34-8.6
				c6.8-0.5,9.4-0.1,10.5,0.3C249.3,430.9,235.5,417,222.4,417.1z"/>
			<path id="path4186" inkscape:connector-curvature="0" class="st4" d="M299.8,312.2c9.3,0.1,19.9,0.9,26.8,2.7
				c1.3-12.1,2-20.6,1.9-26.1c-6.9-4.1-20.1-4.6-28.6-4.7c-10.8-0.1-22.2-0.8-30.8,5.5c-0.3,3.1-0.4,7.4-0.2,13.8
				c0.1,4.3,0.4,9.3,0.8,14.8C279.2,314.7,291.1,312.2,299.8,312.2L299.8,312.2z"/>
			<path id="path4169" inkscape:connector-curvature="0" class="st4" d="M179.7,314.8c5.4-5.6,22.5-20.3,35.5-26.4
				c18-8.5,28.1-8.5,46.3-8.4c0.2,2.8,0.3,5.8,0.4,9c0.2,6.4,0.4,14.1,0.7,22.4c-9.5,0.2-27.6,7.9-31.8,10.3
				c-8.5,4.9-24.5,16.6-29.7,24.9C194.9,338.5,186.7,326.7,179.7,314.8L179.7,314.8z"/>
			<path id="path4116" inkscape:connector-curvature="0" class="st4" d="M200,356.6c-2,1-10.6,14.9-12.9,18.8
				c-3.7,6.4-6.5,13.5-7.6,19.3c-1.5-0.3-3-0.6-4.5-0.9c-6.8-1.2-13.6-0.2-20.1-1.1c0.6-1.9,3.8-13.1,5-17.2
				c3.1-10.4,5.7-15.1,14.9-27.5c4.4-5.9,7.3-9.4,9.5-12C188.2,343.8,193.8,350.3,200,356.6z"/>
			<path id="path4080" inkscape:connector-curvature="0" class="st4" d="M291,381.5c-8.2-2.6-19.1-2.5-24.7-0.1
				c-10.3,4.5-17.9,19.9-17.5,35c0.1,5.1,4.9,14.1,7.4,21.6c0.4-0.8,1.6-6.5,3-9.5c3.2-7,8.8-12.7,19.1-19.5
				c13.2-8.7,22.8-13.1,37-10.4c6.8,1.3,7.1,1.7,12.4,2.7C313.9,393.7,305.3,386.1,291,381.5L291,381.5z"/>
			<path id="path4082" inkscape:connector-curvature="0" class="st4" d="M343.7,386.2c-7.7,3.4-14.5,9.8-15.9,15.1
				c-1.1-3.3-13-15.1-18.6-20.2c17.9-8,53.6-3.4,74.2,2C370.2,380.5,354.4,381.4,343.7,386.2z"/>
		</g>
	</g>
	<g id="layer8" transform="translate(-75.039971,-112.375)">
		<path id="path4244" inkscape:connector-curvature="0" class="st5" d="M559.6,904.5c29.3,0.2,103-16.2,130.9-27.9
			c37.9-16,74.2-41.8,99.9-73.1c28-34,45.1-75.2,49.7-113c3.9-31.5,5.1-77.3-3.2-119.5c-4.7-24.1-9.4-41.3-11.9-43.9
			c-24.1-18.9-56.9-32.1-100.3-31.5c-18.2,0.2-48.9,8.3-75.3,23.9c-18.5,10.9-31.3,23.6-42.2,39.8c8.7,31.1,12.3,83.1,7.9,120.7
			c-4,34.5-16.5,64.4-40.5,96.5c-21.7,29-43.8,49.2-76.4,64.8c-33.2,15.9-49.4,19-71.3,19.2c-33.5,0.3-63.3-11.6-90.2-23
			c-40.1-17-65.6-48.2-95.6-78.9c15,24.7,34.2,49.2,54.3,64.6c38.2,29.3,63.1,45.4,112.5,61.3C458,900.5,502.2,904.1,559.6,904.5
			L559.6,904.5z"/>
	</g>
	<g id="layer9" transform="translate(-75.039971,-112.375)">
		<path id="path4268" inkscape:connector-curvature="0" class="st6" d="M614,549.6c-2.1,2.7-4.9,6.8-6.9,9.7
			c8.7,31.1,12.3,83.1,7.9,120.7c-4,34.5-16.5,64.4-40.5,96.5c-21.7,29-43.8,49.2-76.4,64.8c-33.2,15.9-49.4,19-71.3,19.2
			c-33.5,0.3-63.3-11.6-90.2-23c-40.1-17-65.6-48.2-95.6-78.9c15,24.7,34.2,49.2,54.3,64.6c38.2,29.3,63.1,45.4,112.5,61.3
			c50.1,16.1,94.3,19.7,151.7,20.1c29.3,0.2,103-16.2,130.9-27.9c23.3-9.9,46-23.4,66.1-39.7c-36.1,23.3-168.1,26.9-201.6-21.9
			c21.1-16.5,46.9-42.6,60-78.5c11.3-31,15.7-66.8,13.7-101.2C626.9,605.2,627.2,573.9,614,549.6L614,549.6z"/>
	</g>
	<g id="layer10" transform="translate(-75.039971,-112.375)">
		<g id="g3060">
			<path id="path3038" inkscape:connector-curvature="0" class="st7" d="M717.6,463.8c-11.8-5-27.3-21.4-27.5-33.4
				c-0.1-4.4,1.5-11.1,2.9-12.7c18-0.1,52.8-1.6,83-9.4c16.9-4.3,31.9-7.3,42.8-14.9c-10.4-11.1-29.4-11-40.4-10.8
				c-15.7,0.3-33.3,1.3-51.2,6.6c-12.2,3.6-35.9,10.9-47.8,18c-3.2,9.6-3,14.5-3,19.3c-0.1,14.7,5.4,20.9,16.2,30
				C696.4,459.6,704.3,463.8,717.6,463.8L717.6,463.8z"/>
			<path id="path3034" inkscape:connector-curvature="0" class="st7" d="M704.8,930.7c0.4-2.7-11.4-16.4-19-26.3
				c-3.9-5.1-8.3-11.8-12.9-18.2c2,1.6,8.2,7.1,12.8,9.7c9.7,5.6,21,10.1,31.7,10c7.5-0.1,12.4-1.5,12-4.4
				c-0.3-2.6-9.3-7.7-13.7-10.2c-7.2-4-15.1-7.3-19.6-8.1c-15.3,4.9-35.4,10.3-50.5,14.3c3.1,5.5,10.9,14,24.7,23.9
				c7.1,5.1,16.4,8.1,24.4,10.7C696.4,932.6,704.4,934,704.8,930.7z"/>
			<path id="path3032" inkscape:connector-curvature="0" class="st7" d="M478.4,958.7c0.8-2.1-0.9-15.5-3-22.9
				c-0.9-3-2.9-8.3-4.5-12.6c-2-5-5.6-13.4-10.9-25.6c6,8.3,11.1,16.8,16.9,22.2c5.6,5.1,11.7,10.2,16.5,12.5
				c8.3,4,20.7,8.9,25.7,8.4c3.8-0.3,1.3-8.1-8.8-19.6c-5.3-6-9.6-9.6-14.2-13.9c-11.4-0.2-23.6-2.2-33.9-3.6
				c-15.2-2-32.3-6-46.1-10.1c5.3,14.8,14.5,29.4,23,39.5c10.2,12.1,23,21.6,29,24.6C471.1,959.2,477.5,960.8,478.4,958.7
				L478.4,958.7z"/>
		</g>
	</g>
	<g id="layer11" transform="translate(-75.039971,-112.375)">
		
			<linearGradient id="path3067_1_" gradientUnits="userSpaceOnUse" x1="910.3344" y1="105.1374" x2="909.8875" y2="97.0379" gradientTransform="matrix(1 0 0 1 -150.08 288)">
			<stop  offset="0" style="stop-color:#FF9F00"/>
			<stop  offset="1" style="stop-color:#FCCD6D"/>
		</linearGradient>
		<path id="path3067" inkscape:connector-curvature="0" class="st8" d="M818.9,393.4c-10.4-11.1-29.4-11-40.4-10.8
			c-15.7,0.3-33.3,1.3-51.2,6.6c-6.4,1.9-16.1,4.8-25.5,8.2c2.1,2.8,50.1-4.1,71.5-4.6C790.4,392.4,812,390,818.9,393.4L818.9,393.4
			z"/>
	</g>
	<g id="layer2" transform="translate(-75.039971,-112.375)">
		<g id="g3937">
			<path id="path3930" inkscape:connector-curvature="0" class="st9" d="M708.8,887.7c-4.9-2.3-9.6-4-12.8-4.5
				c-15.3,4.9-35.4,10.3-50.5,14.3c3.1,5.5,10.9,14,24.7,23.9c2.9,2.1,6.1,3.8,9.5,5.3c-14-9.4-16.2-19.8-16.2-24.6
				c0-4.1,3.9-6.4,7.4-6.5c3.8-0.1,9.9,4.4,14.9,9c-3.9-5.1-8.3-11.8-12.9-18.2c2,1.6,8.2,7.1,12.8,9.7c4.1,2.4,8.6,4.6,13.1,6.3
				c-5.7-2.8-8.7-6.9-8.9-10.2C689.6,887.6,695.1,884.5,708.8,887.7L708.8,887.7z"/>
			<path id="path3893" inkscape:connector-curvature="0" class="st9" d="M504,914.6c-2.7-2.6-5.3-4.9-8-7.4
				c-11.4-0.2-23.6-2.2-33.9-3.6c-15.2-2-32.3-6-46.1-10.1c5.3,14.8,14.5,29.4,23,39.5c1.7,2,3.5,4,5.3,5.8
				c-7.4-10.8-11.5-18.6-11.5-25.1c0-8.1,3.8-9.7,11.1-9.5c17.3,0.6,22.9,10.3,31.5,31.5c-0.9-3-2.9-8.3-4.5-12.6
				c-2-5-5.6-13.4-10.9-25.6c6,8.3,11.1,16.8,16.9,22.2c5.6,5.1,11.7,10.2,16.5,12.5c-15.1-11.9-16.2-17.4-16.3-20.9
				c-0.1-3.3,5.5-3.6,14.9-2.9C495,908.7,499.1,910.4,504,914.6L504,914.6z"/>
		</g>
	</g>
	<g id="layer12" transform="translate(-75.039971,-112.375)">
		<path id="path3954" inkscape:connector-curvature="0" class="st10" d="M722.3,423.5l-25.4-0.1c0,2.3,0,5.1,0.1,6.4
			c0.1,4.7,4.2,12.4,11.2,18.9c2.9,2.7,11.4,9.4,15.8,10.1C725.8,453.3,722.9,425.4,722.3,423.5L722.3,423.5z"/>
	</g>
	<g id="layer3" transform="translate(-75.039971,-112.375)">
		<path id="path3990" inkscape:connector-curvature="0" class="st11" d="M723,428.6c-0.3-2.8-0.6-4.7-0.7-5.2l-25.4-0.1
			c0,2.3,0,5.1,0.1,6.4c0,1.6,0.5,3.6,1.5,5.7c1.8-3.2,2.4-6.7,12.5-7.2C714,428.1,718,428.1,723,428.6z"/>
	</g>
	<g id="layer5" transform="translate(-75.039971,-112.375)">
		<path id="path3960" inkscape:connector-curvature="0" class="st12" d="M705.8,388.6c-0.3-7-5.8-10.6-9.3-10.6
			c-9.5,0-15.3,4.9-16.1,13.8c-0.4,4.3-0.4,4.8-0.3,7.4C685.8,395.2,701,389.1,705.8,388.6z"/>
	</g>
	<g id="layer15" transform="translate(-75.039971,-112.375)">
		<path id="path4133" inkscape:connector-curvature="0" class="st13" d="M682.9,384.1c-1.4,2.1-2.2,4.6-2.5,7.7
			c-0.4,4.3-0.4,4.8-0.3,7.4c5.8-3.9,21-10,25.7-10.5c-8.5-0.8-18.5,4-21,3.3C682.6,391.2,682.7,387.3,682.9,384.1z"/>
	</g>
	<g id="layer4" transform="translate(-75.039971,-112.375)">
		<path id="path3985-5" inkscape:connector-curvature="0" class="st14" d="M734.4,352.5c0,7.9-3.4,14.2-7.5,14.2s-7.5-6.4-7.5-14.2
			s3.4-14.2,7.5-14.2S734.4,344.6,734.4,352.5z M653.4,372.7c0,10.2-4.4,18.5-9.8,18.5c-5.4,0-9.8-8.3-9.8-18.5s4.4-18.5,9.8-18.5
			C649,354.3,653.4,362.5,653.4,372.7z M493.5,835.3c35-17,56.4-35.3,79.4-67.4c19.7-27.5,31.9-55.2,36.2-85.4
			c2-14.1,1.6-61.1-0.6-78.3c-3.2-25.5-9-46.6-18.2-71.5c-4.3-11.7-12.5-41.9-11.6-42.7c0.9-0.8,20.8,44.4,25.8,60.6
			c8.8-12.6,22.1-24.7,37.6-34.5c26.6-16.7,65-28.1,89.9-27.3c37.8,1.2,71.5,12.3,88.4,26.6c-3.5-23.2-21.1-49.1-28.8-57.3
			c1.3-3.8,3.6-30.2,3.1-47.8c-19,6.5-43.1,10.1-64.6,11.7c0.8,10.2,1.7,15.9,1.5,24.1c-0.2,8.4-0.7,18.8-7.4,22.6
			c-4.5,2.6-10.8,4.6-25-0.5c-11.9-4.3-18.2-10.6-24.2-21.3c-5.2-9.2-5.8-15.9-5.6-28.4c-7.4,11.7-17.1,17.2-29.3,17.2
			c-9.9,0-20.6-3.3-26.1-8c-17.7-15-22.6-34.5-23.5-55.3c-0.8-19.4,4.3-44.8,12.1-60.4c6.5-13.1,14.9-19.8,28.6-19.8
			c6.2,0,13.9,2.1,19.9,4.9c8.2,3.8,19.3,14.9,23.5,24.5c9.1,20.7,6.9,35.5,6.7,54.2c4.4-3.6,10-4.4,14.9-4.7
			c-4-6.2-4-23.3-4.1-32.8c-0.1-14.6,2.6-29.5,9.1-41.7c3.8-7.1,11.4-13.6,21.2-13.6c18,0,24,13.6,31.7,35.8
			c7.1,20.8,10.4,43.9,6.6,57.1c2.2-0.5,24.3-1.3,28.1-1c-4.8-22.6-10.7-42.3-22.9-62.3c-12.5-20.4-26.4-35.9-49.4-49
			c-34.3-19.5-55.3-21-88.6-19.3c-3.8,0.2-5.8,0.4-8.5-2.1c-2.8-2.5-4.7-9.5-4.7-13.9c0-4-3.9-16.4-7.8-23.8
			c-7-13.5-18.7-22.3-24-22c-6.2,0.4-7.8,15.7-7.5,19c1.4,16.4,8.8,29.7,15.8,38.6c-5.3-0.4-21.3-7.4-26.7-10.1
			c-12.2-6.2-18-10.3-23.7-10.4c-9.7-0.1-11.7,3.9-6.7,12.2c8.9,14.8,29,22.1,44.6,28.5c-17.1,4.8-26.1,13.6-33.6,21.1
			c-21.1,21.2-36.4,41.3-48.2,65.5c-8.7,17.9-19,38.2-22.9,49.5c-0.8-3.9-1.4-10.4-1.2-17.4c-9.6,0.1-48.1,4.6-50.6,8
			c24.3,9.8,60.5,43,71,63.1c-29.3-25.6-67.9-49.7-97.4-63.3c-14-6.4-63.9-15.9-86.3-6c5.6,5.2,17.5,16.9,18.6,20.2
			c-13.9-7.6-22.5-15.2-36.7-19.8c-8.2-2.6-19.1-2.5-24.7-0.1c-10.3,4.5-17.9,19.9-17.5,35c0.1,5.1,4.9,14.1,7.4,21.6
			c-7-7.1-20.8-21-33.9-20.9c-11.7,0-17.1,3.6-25.3,16.4c-7.7,12-11.7,20.2-16.6,34.6c-9.1,26.5-10.8,55.2-5.5,109.9
			c4.3,43.5,16.5,81.7,35.8,121c8.3,16.8,21.7,37.5,34.9,54c11.4,14.3,41.9,45.4,54.4,54.2c42,29.6,87.3,44.8,124.8,46.1
			C451.1,854.2,476.9,843.4,493.5,835.3L493.5,835.3z M322,369.3c-2.4-17.8,2.1-32.6,4.2-51c2.5-21.8,2.9-32.9,1.6-36.4
			c-6-15.6-19.5-18.1-29.7-17.6c-16.6,0.8-22.7,5.5-26.7,16.2c-1.8,4.9-2.9,7.9-2.4,23c0.6,19,3.9,54,10.7,68.8
			c7.8,0.5,15,1.7,21.3,6.1C306.3,371.9,315.6,370.6,322,369.3z M271.9,373.1c-9-19.7-9.3-60.7-10.1-84.1
			c-1.4-42.5-8.3-55.9-32-59.6c-13.5-2.1-24.5,0.1-39.2,7.8c-16.3,8.5-25,24.2-25.4,41.6c-0.3,15.5,22.4,50.3,35.9,67.7
			c8.6,11.1,36,35.9,49.1,40.8C251.2,381.4,266.7,370.7,271.9,373.1L271.9,373.1z M754.1,377.7c0.7-3.7,1.9-8.5,1.6-15.1
			c-0.4-11.2-3.4-28.5-8.7-43.4c-5.7-16-14-29.4-24.5-29.8c-7.1-0.2-10.8,3.6-15.5,10.6c-6.9,10.3-9,27.7-8.7,44.6
			c0.2,11.4,2.4,22.1,5.2,27.8c5.3,4.1,8,8.9,8.7,14.5C718.9,383.9,740.3,377.7,754.1,377.7L754.1,377.7z M705.8,388.6
			c-0.3-7-5.8-10.6-9.3-10.6c-9.5,0-15.3,4.9-16.1,13.8c-0.4,4.3-0.4,4.8-0.3,7.4C685.8,395.2,701,389.1,705.8,388.6L705.8,388.6z
			 M246.1,392.6c-9.2-5.9-21.7-12-28-18.4c-14-14.4-29-25.1-35.8-42.7c-1.5-4-4.3-6.5-6.6-6.7c-8.9-0.8-20.4,14.5-25.7,21.8
			c-7.9,10.7-12.8,23.1-9,35.4c1.1,3.6,3.1,7,6.6,8.7c8.6,4.1,18.1,1.5,27.5,3.2c8.5,1.5,16.8,4.1,23.6,7.2
			c4.2,1.9,6.1,4.5,8.2,11.5c5-1.8,10.6-2.8,16-3.1c7.5-0.4,11.6,2.5,19.2,8C241.9,406.9,245,398.8,246.1,392.6z M675,361
			c1-33.4-15.2-61.4-42.5-62.4c-30.9-1-36.4,53.9-36,73.2c0.5,23.4,13.8,58,42.9,57.5C671.2,428.8,674.4,383.9,675,361L675,361z
			 M722.3,423.5l-25.4-0.1c0,2.3,0,5.1,0.1,6.4c0.1,4.7,4.2,12.4,11.2,18.9c2.9,2.7,11.4,9.4,15.8,10.1
			C725.8,453.3,722.9,425.4,722.3,423.5z M717.6,463.8c-11.8-5-27.3-21.4-27.5-33.4c-0.1-4.4,1.5-11.1,2.9-12.7
			c18-0.1,52.8-1.6,83-9.4c16.9-4.3,31.9-7.3,42.8-14.9c-10.4-11.1-29.4-11-40.4-10.8c-15.7,0.3-33.3,1.3-51.2,6.6
			c-12.2,3.6-35.9,10.9-47.8,18c-3.2,9.6-3,14.5-3,19.3c-0.1,14.7,5.4,20.9,16.2,30C696.4,459.6,704.3,463.8,717.6,463.8z
			 M559.6,904.5c29.3,0.2,103-16.2,130.9-27.9c37.9-16,74.2-41.8,99.9-73.1c28-34,45.1-75.2,49.7-113c3.9-31.5,5.1-77.3-3.2-119.5
			c-4.7-24.1-9.4-41.3-11.9-43.9c-24.1-18.9-56.9-32.1-100.3-31.5c-18.2,0.2-48.9,8.3-75.3,23.9c-18.5,10.9-31.3,23.6-42.2,39.8
			c8.7,31.1,12.3,83.1,7.9,120.7c-4,34.5-16.5,64.4-40.5,96.5c-21.7,29-43.8,49.2-76.4,64.8c-33.2,15.9-49.4,19-71.3,19.2
			c-33.5,0.3-63.3-11.6-90.2-23c-40.1-17-65.6-48.2-95.6-78.9c15,24.7,34.2,49.2,54.3,64.6c38.2,29.3,63.1,45.4,112.5,61.3
			C458,900.5,502.2,904.1,559.6,904.5L559.6,904.5z M704.8,930.7c0.4-2.7-11.4-16.4-19-26.3c-3.9-5.1-8.3-11.8-12.9-18.2
			c2,1.6,8.2,7.1,12.8,9.7c9.7,5.6,21,10.1,31.7,10c7.5-0.1,12.4-1.5,12-4.4c-0.3-2.6-9.3-7.7-13.7-10.2c-7.2-4-15.1-7.3-19.6-8.1
			c-15.3,4.9-35.4,10.3-50.5,14.3c3.1,5.5,10.9,14,24.7,23.9c7.1,5.1,16.4,8.1,24.4,10.7C696.4,932.6,704.4,934,704.8,930.7
			L704.8,930.7z M478.4,958.7c0.8-2.1-0.9-15.5-3-22.9c-0.9-3-2.9-8.3-4.5-12.6c-2-5-5.6-13.4-10.9-25.6c6,8.3,11.1,16.8,16.9,22.2
			c5.6,5.1,11.7,10.2,16.5,12.5c8.3,4,20.7,8.9,25.7,8.4c3.8-0.3,1.3-8.1-8.8-19.6c-5.3-6-9.6-9.6-14.2-13.9
			c-11.4-0.2-23.6-2.2-33.9-3.6c-15.2-2-32.3-6-46.1-10.1c5.3,14.8,14.5,29.4,23,39.5c10.2,12.1,23,21.6,29,24.6
			C471.1,959.2,477.5,960.8,478.4,958.7L478.4,958.7z M451.8,961.1c-10.3-7.2-21.3-20.3-29.9-31.3c-9.6-12.2-12.8-21.4-16.5-35.6
			c-26.8-6.4-61.3-22.6-87.3-38.9c-35.1-22-62-51.6-82.7-83.8c-15.4-24.1-26.9-49.9-38.6-74.2c-22.5-46.5-32.2-88.7-35.6-128
			c-4.6-52.8,1.7-96,16.4-126c6.2-12.8,13-18.3,18.1-26.9c1.9-3.2-0.9-8-27.6-10c-23.4-1.8-32.4-6.6-36.3-17.2
			c-4.5-11.9-4.7-24.7,1.2-36.9c8.2-17.1,26.1-35.7,36.5-36.7c-14-11.1-17.8-34.4-12.7-54.4c5.5-21.8,33.4-41.7,60.7-43.4
			c17.6-1.1,31.7,4.1,40.9,13.4c6.9,6.1,11.1,23,12.4,29.7c7.8-5.3,21.8-7.6,30.6-7.8c19.3-0.5,31.5,9.6,36.9,23
			c4.2,10.4,2.6,25.5-1.1,48.1c-4,24.4-4,37.6-2,39.4c1.9,1.8,2.1,1.7,17.7,2.5c20.9,1.1,36.5,6.7,51,12.9c23-7.6,56.4-11,73.3-11
			c5.1-18.5,17-43.2,30.3-60c13.7-17.2,16.7-24.5,42.6-46.9c-11.5-3.5-29.2-22.3-29.9-37.4c-0.5-9.4,5.1-14.7,18.1-15
			c12.6-0.2,18.4,4.2,27.8,8.6c-2.5-8-5.2-23.2,0.9-34.8c3.5-6.6,10-11.1,16.6-11.1c10.9,0,24.2,10.3,32.6,27.2
			c7.5,15,9.8,24.8,9.5,36.3c35.8-4.7,44.7-1.2,57.7,2.5c39.1,11,68.3,33.8,90.5,67.5c16.8,25.6,22,46.8,26.8,69.2
			c16.5,2.4,28.8,6.9,28.9,17.6c0.1,9.7-14.6,15.4-24.9,18.3c2.8,17.2,2,36.5-2.9,44.5c19.4,8,36.2,72.6,42.2,98.1
			c7.8,33.7,10.6,62.3,10.6,95.3c0,33.1-3.1,56.1-13.4,88.1c-10.3,31.9-32,68.7-54.7,91.2c-20.3,20.1-47.9,38.7-70.7,50.4
			c5.6,3.1,15.4,7.9,21.1,14.7c2.9,3.5,5,7.4,5.1,10.6c0.2,8.4-7.9,12.2-23.4,12.5c-3.3,0-5.4-0.6-9.6-0.9c0.8,1.5,2.9,3.8,4.9,7.3
			c3.7,6.7,3.6,11.6,1.6,16c-1.8,3.9-6.5,6.7-13.2,6.5c-6.4-0.2-14.5-1.6-24.4-5.8c-8-3.4-17.4-9.8-25-16.7
			c-7.5-6.9-11.9-11.6-18.5-21c-17.6,4.9-26,7.4-52.5,10.7c-21.4,2.7-50.3,4.2-62.9,3c7.2,6.3,13.3,15,13.9,24
			c0.5,8.1-2.2,13.5-12,13.6c-5.8,0-17.4-3.3-26.7-7.6c-4.6-2.1-6.5-3.2-8-4c2.7,5.9,5.1,11.4,5.2,18.5c0.2,8.7-6.9,12.4-13.6,12.4
			C467.6,971.3,458.6,965.9,451.8,961.1L451.8,961.1z"/>
	</g>
</g>
</svg>
